<?xml version="1.0" encoding="UTF-8"?>
<!DOCTYPE svg PUBLIC "-//W3C//DTD SVG 1.1//EN" "http://www.w3.org/Graphics/SVG/1.1/DTD/svg11.dtd">
<svg xmlns="http://www.w3.org/2000/svg" version="1.1" width="800px" height="400px" style="shape-rendering:geometricPrecision; text-rendering:geometricPrecision; image-rendering:optimizeQuality; fill-rule:evenodd; clip-rule:evenodd" xmlns:xlink="http://www.w3.org/1999/xlink">
<g><path style="opacity:0.998" fill="#fefffe" d="M 338.5,127.5 C 380.5,127.5 422.5,127.5 464.5,127.5C 464.5,186.5 464.5,245.5 464.5,304.5C 422.5,304.5 380.5,304.5 338.5,304.5C 338.5,245.5 338.5,186.5 338.5,127.5 Z M 344.5,133.5 C 382.5,133.5 420.5,133.5 458.5,133.5C 458.5,188.5 458.5,243.5 458.5,298.5C 420.5,298.5 382.5,298.5 344.5,298.5C 344.5,243.5 344.5,188.5 344.5,133.5 Z"/></g>
<g><path style="opacity:0.892" fill="#fefffe" d="M 400.5,269.5 C 411.183,270.006 415.016,275.34 412,285.5C 407.305,291.076 401.805,291.909 395.5,288C 390.345,279.843 392.011,273.676 400.5,269.5 Z"/></g>
</svg>
