<?xml version="1.0" encoding="UTF-8"?>
<!DOCTYPE svg PUBLIC "-//W3C//DTD SVG 1.1//EN" "http://www.w3.org/Graphics/SVG/1.1/DTD/svg11.dtd">
<svg xmlns="http://www.w3.org/2000/svg" version="1.1" width="800px" height="400px" style="shape-rendering:geometricPrecision; text-rendering:geometricPrecision; image-rendering:optimizeQuality; fill-rule:evenodd; clip-rule:evenodd" xmlns:xlink="http://www.w3.org/1999/xlink">
<g><path style="opacity:0.867" fill="#fefffe" d="M 333.5,149.5 C 376.835,149.333 420.168,149.5 463.5,150C 472.732,153.566 478.899,160.066 482,169.5C 489.158,199.797 496.158,230.131 503,260.5C 503.667,266.833 503.667,273.167 503,279.5C 501.691,288.14 496.858,293.64 488.5,296C 474.572,297.789 463.072,293.289 454,282.5C 446.346,273.19 439.179,263.523 432.5,253.5C 409.507,252.334 386.507,252.167 363.5,253C 355.24,261.693 348.073,271.193 342,281.5C 334.272,290.198 324.606,295.198 313,296.5C 302.715,295.858 296.381,290.524 294,280.5C 293.333,273.833 293.333,267.167 294,260.5C 300.128,234.196 306.128,207.862 312,181.5C 313.012,166.418 320.179,155.751 333.5,149.5 Z M 338.5,155.5 C 378.501,155.333 418.501,155.5 458.5,156C 468.066,158.568 473.9,164.735 476,174.5C 483.488,206.451 490.655,238.451 497.5,270.5C 497.254,285.253 489.921,291.42 475.5,289C 467.511,285.018 460.677,279.518 455,272.5C 448.622,263.578 442.122,254.744 435.5,246C 410.5,245.333 385.5,245.333 360.5,246C 358.391,247.141 356.558,248.641 355,250.5C 347.622,260.756 340.122,270.922 332.5,281C 308.902,296.093 298.402,289.593 301,261.5C 307.491,233.869 313.824,206.202 320,178.5C 321.324,166.699 327.491,159.032 338.5,155.5 Z"/></g>
<g><path style="opacity:0.948" fill="#fefffe" d="M 353.5,182.5 C 357.5,182.5 361.5,182.5 365.5,182.5C 365.5,186.5 365.5,190.5 365.5,194.5C 369.5,194.5 373.5,194.5 377.5,194.5C 377.5,198.5 377.5,202.5 377.5,206.5C 373.5,206.5 369.5,206.5 365.5,206.5C 365.5,210.5 365.5,214.5 365.5,218.5C 361.5,218.5 357.5,218.5 353.5,218.5C 353.5,214.5 353.5,210.5 353.5,206.5C 349.5,206.5 345.5,206.5 341.5,206.5C 341.5,202.5 341.5,198.5 341.5,194.5C 345.5,194.5 349.5,194.5 353.5,194.5C 353.5,190.5 353.5,186.5 353.5,182.5 Z"/></g>
<g><path style="opacity:0.94" fill="#fefffe" d="M 435.5,182.5 C 451.467,181.975 457.967,189.641 455,205.5C 449.705,215.723 441.872,218.223 431.5,213C 425.788,207.331 423.955,200.497 426,192.5C 428.022,187.98 431.189,184.647 435.5,182.5 Z"/></g>
</svg>
