<?xml version="1.0" encoding="UTF-8"?>
<svg version="1.1" xmlns="http://www.w3.org/2000/svg" width="420" height="120">
<path d="M0 0 C0.98613281 0.00322266 1.97226562 0.00644531 2.98828125 0.00976562 C4.02082031 0.01814453 5.05335938 0.02652344 6.1171875 0.03515625 C7.67759766 0.04192383 7.67759766 0.04192383 9.26953125 0.04882812 C11.84380712 0.06063673 14.41796896 0.0771055 16.9921875 0.09765625 C16.9921875 1.41765625 16.9921875 2.73765625 16.9921875 4.09765625 C15.6721875 4.09765625 14.3521875 4.09765625 12.9921875 4.09765625 C13.3221875 7.06765625 13.6521875 10.03765625 13.9921875 13.09765625 C16.3021875 8.80765625 18.6121875 4.51765625 20.9921875 0.09765625 C24.49837327 3.60384202 25.87633258 6.64706487 27.9921875 11.09765625 C28.3221875 7.46765625 28.6521875 3.83765625 28.9921875 0.09765625 C30.6009375 0.05640625 32.2096875 0.01515625 33.8671875 -0.02734375 C35.22457031 -0.06214844 35.22457031 -0.06214844 36.609375 -0.09765625 C38.9921875 0.09765625 38.9921875 0.09765625 40.9921875 2.09765625 C41.20895158 5.49362688 41.07292602 7.8554407 39.9921875 11.09765625 C40.9821875 12.08765625 41.9721875 13.07765625 42.9921875 14.09765625 C43.4253125 12.98390625 43.4253125 12.98390625 43.8671875 11.84765625 C44.81521394 9.53025828 45.84064661 7.3184851 46.9921875 5.09765625 C44.5171875 4.60265625 44.5171875 4.60265625 41.9921875 4.09765625 C41.9921875 2.77765625 41.9921875 1.45765625 41.9921875 0.09765625 C46.2821875 0.09765625 50.5721875 0.09765625 54.9921875 0.09765625 C53.53086533 4.48162276 52.4085485 7.36328016 49.9921875 11.09765625 C52.4671875 11.59265625 52.4671875 11.59265625 54.9921875 12.09765625 C54.9921875 13.41765625 54.9921875 14.73765625 54.9921875 16.09765625 C49.0521875 16.09765625 43.1121875 16.09765625 36.9921875 16.09765625 C36.3321875 14.44765625 35.6721875 12.79765625 34.9921875 11.09765625 C34.3321875 11.09765625 33.6721875 11.09765625 32.9921875 11.09765625 C32.9921875 12.74765625 32.9921875 14.39765625 32.9921875 16.09765625 C30.3521875 16.09765625 27.7121875 16.09765625 24.9921875 16.09765625 C24.9921875 15.43765625 24.9921875 14.77765625 24.9921875 14.09765625 C22.6821875 14.09765625 20.3721875 14.09765625 17.9921875 14.09765625 C17.9921875 14.75765625 17.9921875 15.41765625 17.9921875 16.09765625 C15.0221875 16.09765625 12.0521875 16.09765625 8.9921875 16.09765625 C8.9921875 12.13765625 8.9921875 8.17765625 8.9921875 4.09765625 C7.7340625 4.26265625 6.4759375 4.42765625 5.1796875 4.59765625 C2.72762165 4.91923866 0.47568056 5.09765625 -2.0078125 5.09765625 C-1.0384375 5.48953125 -0.0690625 5.88140625 0.9296875 6.28515625 C3.9921875 8.09765625 3.9921875 8.09765625 4.9921875 10.59765625 C4.9921875 13.09765625 4.9921875 13.09765625 2.9921875 16.09765625 C0.8984375 16.49609375 0.8984375 16.49609375 -1.5078125 16.47265625 C-2.301875 16.48039062 -3.0959375 16.488125 -3.9140625 16.49609375 C-4.605 16.36460938 -5.2959375 16.233125 -6.0078125 16.09765625 C-6.6678125 15.10765625 -7.3278125 14.11765625 -8.0078125 13.09765625 C-7.6778125 12.10765625 -7.3478125 11.11765625 -7.0078125 10.09765625 C-5.0278125 10.75765625 -3.0478125 11.41765625 -1.0078125 12.09765625 C-0.6778125 11.76765625 -0.3478125 11.43765625 -0.0078125 11.09765625 C-2.3178125 10.10765625 -4.6278125 9.11765625 -7.0078125 8.09765625 C-7.0078125 5.78765625 -7.0078125 3.47765625 -7.0078125 1.09765625 C-4.50284246 -0.15482877 -2.79927976 -0.01608781 0 0 Z M32.9921875 4.09765625 C32.9921875 5.08765625 32.9921875 6.07765625 32.9921875 7.09765625 C34.3121875 6.76765625 35.6321875 6.43765625 36.9921875 6.09765625 C36.9921875 5.43765625 36.9921875 4.77765625 36.9921875 4.09765625 C35.6721875 4.09765625 34.3521875 4.09765625 32.9921875 4.09765625 Z M20.9921875 8.09765625 C21.9921875 10.09765625 21.9921875 10.09765625 21.9921875 10.09765625 Z " fill="#FFFFFF" transform="translate(272.0078125,66.90234375)"/>
<path d="M0 0 C0.99 -1.32 1.98 -2.64 3 -4 C5.31 -3.67 7.62 -3.34 10 -3 C9.67 -1.35 9.34 0.3 9 2 C13.455 2.99 13.455 2.99 18 4 C18 3.34 18 2.68 18 2 C18.515625 2.165 19.03125 2.33 19.5625 2.5 C22.14652177 3.11512425 22.14652177 3.11512425 25.4375 3 C29.86026654 3 33.74523175 3.89691193 38 5 C37.8125 7.875 37.8125 7.875 37 11 C35.33333333 11.66666667 33.66666667 12.33333333 32 13 C31.10169161 16.05272465 31.10169161 16.05272465 31 19 C29.68 18.67 28.36 18.34 27 18 C27 16.35 27 14.7 27 13 C25.700625 12.855625 24.40125 12.71125 23.0625 12.5625 C19.125 12.125 19.125 12.125 18 11 C17.67 11.66 17.34 12.32 17 13 C6 13 6 13 4.125 12.375 C1.98951378 11.77776049 1.98951378 11.77776049 0.20703125 12.91796875 C-3.93192111 14.94715424 -8.43680846 15.28393192 -13 15 C-16.17774183 12.77558072 -17.53441166 11.32513603 -18.8125 7.6875 C-18.874375 7.130625 -18.93625 6.57375 -19 6 C-16 4 -16 4 -13 4 C-12.67 2.35 -12.34 0.7 -12 -1 C-14.31 -1.66 -16.62 -2.32 -19 -3 C-19 -2.34 -19 -1.68 -19 -1 C-19.99 -1 -20.98 -1 -22 -1 C-22 -2.32 -22 -3.64 -22 -5 C-13.63714387 -7.44308157 -7.04888923 -4.51595504 0 0 Z M-11 -1 C-11.04289755 0.93109581 -11.04289755 0.93109581 -10 3 C-6.51202512 4.79271391 -6.51202512 4.79271391 -3 6 C-3 6.66 -3 7.32 -3 8 C-3.99 8.495 -3.99 8.495 -5 9 C-5.33 8.34 -5.66 7.68 -6 7 C-7.32 7.33 -8.64 7.66 -10 8 C-9.67 8.99 -9.34 9.98 -9 11 C-4.74268432 11.40749675 -4.74268432 11.40749675 -1.125 9.5 C-0.75375 9.005 -0.3825 8.51 0 8 C-1.00943487 4.36603447 -1.91605758 3.06608233 -4.9375 0.6875 C-7.8551441 -1.24130238 -7.8551441 -1.24130238 -11 -1 Z M-15 7 C-14.67 7.99 -14.34 8.98 -14 10 C-13.67 9.01 -13.34 8.02 -13 7 C-13.66 7 -14.32 7 -15 7 Z M28 7 C29 9 29 9 29 9 Z " fill="#FFFFFF" transform="translate(187,72)"/>
<path d="M0 0 C0.99 0 1.98 0 3 0 C4.25664978 2.90600261 5 4.79604584 5 8 C7.97 8 10.94 8 14 8 C12.11656068 11.76687864 11.30867531 12.79421646 8 15 C8.66 17.64 9.32 20.28 10 23 C6 22 6 22 3.5625 20.75 C2.716875 20.5025 1.87125 20.255 1 20 C-1.62387135 21.39092892 -1.62387135 21.39092892 -4 23 C-4.99 22.67 -5.98 22.34 -7 22 C-4.03 18.535 -4.03 18.535 -1 15 C-2.32 14.67 -3.64 14.34 -5 14 C-7.02951535 12.71203834 -9.03501678 11.38442 -11 10 C-11.33 13.96 -11.66 17.92 -12 22 C-13.98 22 -15.96 22 -18 22 C-18 17.38 -18 12.76 -18 8 C-19.32 8 -20.64 8 -22 8 C-22 6.02 -22 4.04 -22 2 C-17.38 2 -12.76 2 -8 2 C-8 3.65 -8 5.3 -8 7 C-5.69 7.33 -3.38 7.66 -1 8 C-0.67 5.36 -0.34 2.72 0 0 Z " fill="#FB3A38" transform="translate(87,64)"/>
<path d="M0 0 C118.14 0 236.28 0 358 0 C358 0.33 358 0.66 358 1 C239.86 1 121.72 1 0 1 C0 0.67 0 0.34 0 0 Z " fill="#E5672A" transform="translate(31,111)"/>
<path d="M0 0 C9 0 9 0 12.0625 1.0625 C14 3 14 3 14.5 6.5 C14 10 14 10 12.5 11.9375 C12.005 12.288125 11.51 12.63875 11 13 C11.66 13.78375 12.32 14.5675 13 15.375 C15 18 15 18 15 20 C12.125 20.125 12.125 20.125 9 20 C8.34 19.34 7.68 18.68 7 18 C6.67 18.66 6.34 19.32 6 20 C4.02 20 2.04 20 0 20 C0 13.4 0 6.8 0 0 Z M6 6 C5.67 6.66 5.34 7.32 5 8 C6.32 8 7.64 8 9 8 C9 7.34 9 6.68 9 6 C8.01 6 7.02 6 6 6 Z " fill="#FFFFFF" transform="translate(102,66)"/>
<path d="M0 0 C2 2 2 2 2 5 C0.1875 5.625 0.1875 5.625 -2 6 C-2.99 5.34 -3.98 4.68 -5 4 C-5 4.66 -5 5.32 -5 6 C-4.05125 6.268125 -3.1025 6.53625 -2.125 6.8125 C1 8 1 8 3 11 C2.55555556 16.44444444 2.55555556 16.44444444 0 19 C-7.13688469 19.56641942 -7.13688469 19.56641942 -10 17.6875 C-11 16 -11 16 -11 13 C-9.35 12.67 -7.7 12.34 -6 12 C-6 12.66 -6 13.32 -6 14 C-5.01 14 -4.02 14 -3 14 C-3 13.34 -3 12.68 -3 12 C-4.1446875 11.566875 -4.1446875 11.566875 -5.3125 11.125 C-8 10 -8 10 -11 8 C-11.4375 5.0625 -11.4375 5.0625 -11 2 C-7.81693261 -1.94700356 -4.59995823 -1.10739735 0 0 Z " fill="#FFFFFF" transform="translate(62,67)"/>
<path d="M0 0 C4.62 0 9.24 0 14 0 C14 1.65 14 3.3 14 5 C13.01 5.33 12.02 5.66 11 6 C10.67 10.62 10.34 15.24 10 20 C8.02 20 6.04 20 4 20 C4 15.38 4 10.76 4 6 C2.68 6 1.36 6 0 6 C0 4.02 0 2.04 0 0 Z " fill="#FFFEFE" transform="translate(65,66)"/>
<path d="M0 0 C1.22493164 -0.03673828 1.22493164 -0.03673828 2.47460938 -0.07421875 C11.17961845 -0.11583632 17.48732792 3.31260952 23.6875 9.375 C28.6875 16.2219657 28.6875 16.2219657 28.6875 19.375 C26.828125 19.109375 26.828125 19.109375 24.6875 18.375 C23.484375 16.703125 23.484375 16.703125 22.4375 14.625 C19.00906648 8.77464555 14.1356518 5.89939983 7.6875 4.0625 C-0.89109138 2.34678172 -7.41664058 3.70906527 -15.3125 7.375 C-16.65037397 8.36891701 -17.98472914 9.36762602 -19.3125 10.375 C-19.9725 10.375 -20.6325 10.375 -21.3125 10.375 C-21.1875 8.625 -21.1875 8.625 -20.3125 6.375 C-13.62392228 1.20655358 -8.22034949 0.01279432 0 0 Z " fill="#006AF8" transform="translate(203.3125,52.625)"/>
<path d="M0 0 C1.32 0 2.64 0 4 0 C4 1.98 4 3.96 4 6 C5.98 6 7.96 6 10 6 C10 7.65 10 9.3 10 11 C8.35 11 6.7 11 5 11 C4.67 12.98 4.34 14.96 4 17 C2.68 17 1.36 17 0 17 C-0.33 15.02 -0.66 13.04 -1 11 C-2.65 11 -4.3 11 -6 11 C-6.33 9.35 -6.66 7.7 -7 6 C-4.69 6 -2.38 6 0 6 C0 4.02 0 2.04 0 0 Z " fill="#FFFFFF" transform="translate(126,68)"/>
<path d="M0 0 C0.33 0 0.66 0 1 0 C1 4.62 1 9.24 1 14 C3.64 13.67 6.28 13.34 9 13 C10.65 8.71 12.3 4.42 14 0 C14.99 0 15.98 0 17 0 C17.83719383 2.29032311 18.6698929 4.58210957 19.5 6.875 C19.73847656 7.52597656 19.97695313 8.17695312 20.22265625 8.84765625 C22 13.7734375 22 13.7734375 22 16 C21.01 15.67 20.02 15.34 19 15 C18.67 14.01 18.34 13.02 18 12 C16.35 12 14.7 12 13 12 C12.34 13.32 11.68 14.64 11 16 C7.37 16 3.74 16 0 16 C0 10.72 0 5.44 0 0 Z M15 4 C14.67 5.65 14.34 7.3 14 9 C14.99 9 15.98 9 17 9 C16.67 7.35 16.34 5.7 16 4 C15.67 4 15.34 4 15 4 Z " fill="#FFFFFF" transform="translate(340,67)"/>
<path d="M0 0 C0.99 0 1.98 0 3 0 C4.25664978 2.90600261 5 4.79604584 5 8 C7.97 8 10.94 8 14 8 C12.11656068 11.76687864 11.30867531 12.79421646 8 15 C8.33 15.99 8.66 16.98 9 18 C5.45566346 16.58226538 4.66193881 15.32387762 3 12 C0.98330173 10.86649466 0.98330173 10.86649466 -1 10 C-2.27351308 7.45297384 -1.80191925 6.5717055 -1.0625 3.875 C-0.86785156 3.15054688 -0.67320313 2.42609375 -0.47265625 1.6796875 C-0.31667969 1.12539062 -0.16070312 0.57109375 0 0 Z " fill="#FE6A02" transform="translate(87,64)"/>
<path d="M0 0 C2.64 0 5.28 0 8 0 C10 2 10 2 10.3125 5 C10.1578125 6.485 10.1578125 6.485 10 8 C6.77208445 10.1519437 5.71599191 10.20086443 2 10 C2 11.98 2 13.96 2 16 C1.34 16 0.68 16 0 16 C0 10.72 0 5.44 0 0 Z M2 2 C2 3.98 2 5.96 2 8 C3.98 7.67 5.96 7.34 8 7 C7.67 5.35 7.34 3.7 7 2 C5.35 2 3.7 2 2 2 Z " fill="#FFFFFF" transform="translate(329,67)"/>
<path d="M0 0 C0.99 0 1.98 0 3 0 C3 1.32 3 2.64 3 4 C4.32 4 5.64 4 7 4 C7 5.32 7 6.64 7 8 C5.68 8 4.36 8 3 8 C3 9.32 3 10.64 3 12 C2.01 12 1.02 12 0 12 C0 10.68 0 9.36 0 8 C-1.32 7.67 -2.64 7.34 -4 7 C-3.67 6.01 -3.34 5.02 -3 4 C-2.01 4 -1.02 4 0 4 C0 2.68 0 1.36 0 0 Z " fill="#FFFFFF" transform="translate(230,73)"/>
<path d="M0 0 C3.60156104 2.05803488 6.88992126 4.24535883 10 7 C10 7.66 10 8.32 10 9 C7.62251075 8.47166905 5.74713197 7.87032409 3.5625 6.75 C2.716875 6.5025 1.87125 6.255 1 6 C-1.62387135 7.39092892 -1.62387135 7.39092892 -4 9 C-4.99 8.67 -5.98 8.34 -7 8 C-4.69 5.36 -2.38 2.72 0 0 Z " fill="#FB2E44" transform="translate(87,78)"/>
<path d="M0 0 C6.80002684 3.85334854 11.41288332 7.96643787 15 15 C15 15.66 15 16.32 15 17 C13.1484375 16.73828125 13.1484375 16.73828125 11 16 C9.7265625 14.29296875 9.7265625 14.29296875 8.625 12.1875 C6.93824289 9.23961608 5.62573718 7.47146132 2.6875 5.75 C1.800625 5.1725 0.91375 4.595 0 4 C0 2.68 0 1.36 0 0 Z " fill="#09E3F4" transform="translate(217,55)"/>
<path d="M0 0 C3.51199172 2.258781 4.99207549 4.42749479 6.75 8.1875 C7.39195313 9.53908203 7.39195313 9.53908203 8.046875 10.91796875 C8.36140625 11.60503906 8.6759375 12.29210937 9 13 C6 13 6 13 4.3125 11.625 C3 10 3 10 3 8 C2.0409375 7.566875 2.0409375 7.566875 1.0625 7.125 C-1 6 -1 6 -2 4 C-1.0625 1.875 -1.0625 1.875 0 0 Z " fill="#FE5B14" transform="translate(87,68)"/>
<path d="M0 0 C3.39914975 1.13304992 4.05254451 2.12518475 6 5 C6.45375 4.175 6.9075 3.35 7.375 2.5 C7.91125 1.675 8.4475 0.85 9 0 C9.66 0 10.32 0 11 0 C9.94124926 3.40312738 8.99097846 6.01353231 7 9 C6.60612212 11.32387947 6.26513915 13.65793749 6 16 C5.67 16 5.34 16 5 16 C4.87625 14.4840625 4.87625 14.4840625 4.75 12.9375 C4.16227462 8.62166584 2.24385159 5.69149778 0 2 C0 1.34 0 0.68 0 0 Z " fill="#FFFFFF" transform="translate(360,67)"/>
<path d="M0 0 C3.58790575 0.29899215 4.78166776 0.76986601 7.3125 3.4375 C9 6 9 6 9 8 C5.56801397 6.76067171 2.69674368 5.49698489 0 3 C0 2.01 0 1.02 0 0 Z " fill="#FA1E51" transform="translate(76,71)"/>
<path d="M0 0 C0.99 0.66 1.98 1.32 3 2 C3 2.66 3 3.32 3 4 C0.6875 5.6875 0.6875 5.6875 -2 7 C-2.99 6.67 -3.98 6.34 -5 6 C-3.35 4.02 -1.7 2.04 0 0 Z " fill="#FA175E" transform="translate(85,80)"/>
<path d="M0 0 C5.29158974 1.40071493 7.77478044 4.85487245 11 9 C8 9 8 9 6.3125 7.625 C5 6 5 6 5 4 C4.360625 3.71125 3.72125 3.4225 3.0625 3.125 C1 2 1 2 0 0 Z " fill="#FD4A26" transform="translate(85,72)"/>
<path d="M0 0 C5.75 0.875 5.75 0.875 8 2 C8 2.99 8 3.98 8 5 C5.36 4.34 2.72 3.68 0 3 C0 2.01 0 1.02 0 0 Z " fill="#00A6F6" transform="translate(209,53)"/>
<path d="M0 0 C0.66 0 1.32 0 2 0 C2.66 1.98 3.32 3.96 4 6 C2.68 5.67 1.36 5.34 0 5 C-0.5625 3.0625 -0.5625 3.0625 -1 1 C-0.67 0.67 -0.34 0.34 0 0 Z " fill="#C4F9FC" transform="translate(228,66)"/>
</svg>
