<?xml version="1.0" encoding="UTF-8"?>
<svg version="1.1" xmlns="http://www.w3.org/2000/svg" width="1000" height="252">
<path d="M0 0 C30.88888889 0 30.88888889 0 38.875 6.25 C42.38476288 10.79204608 43.31608474 15.37250682 42.875 21.0625 C41.97466118 26.22174495 40.19935619 30.3347131 35.95703125 33.546875 C34.00416018 34.77735659 32.04173997 35.92461754 30 37 C31.31554159 39.7592798 32.77663809 42.24857978 34.53125 44.75 C35.01207031 45.4409375 35.49289063 46.131875 35.98828125 46.84375 C36.48714844 47.5553125 36.98601562 48.266875 37.5 49 C38.49201398 50.41496568 39.48167904 51.83158168 40.46875 53.25 C40.90638672 53.87390625 41.34402344 54.4978125 41.79492188 55.140625 C43.02290001 57.03533357 44.02900049 58.96337922 45 61 C34.18810373 62.2990021 34.18810373 62.2990021 29 61 C25.21295445 57.93215598 23.26295954 54.26354696 21 50 C19.85097848 48.2590583 18.6859142 46.52852331 17.5 44.8125 C16.675 43.554375 15.85 42.29625 15 41 C14.67 47.6 14.34 54.2 14 61 C9.38 61 4.76 61 0 61 C0 40.87 0 20.74 0 0 Z M14 13 C14 17.29 14 21.58 14 26 C20.82332544 26.42317465 20.82332544 26.42317465 27 24 C28.41441874 21.17116253 28.31900332 19.12623255 28 16 C25.81453679 13.82967857 24.50077164 13.05690587 21.421875 12.70703125 C20.09929687 12.75923828 20.09929687 12.75923828 18.75 12.8125 C16.39875 12.9053125 16.39875 12.9053125 14 13 Z " fill="#FFFFFF" transform="translate(168,111)"/>
<path d="M0 0 C10.18014498 6.7818167 19.08283708 15.68167837 21.8125 28.0078125 C22.18674335 33.97231585 19.65676722 39.0512945 15.83984375 43.4453125 C8.96508344 49.9137631 -0.32409438 52.89845752 -9.625 52.875 C-10.64464844 52.87757813 -11.66429687 52.88015625 -12.71484375 52.8828125 C-15.6875 52.75 -15.6875 52.75 -18.4375 52.1171875 C-19.55125 51.93542969 -19.55125 51.93542969 -20.6875 51.75 C-22.04118596 53.06266518 -23.37549596 54.39567325 -24.6875 55.75 C-26.9375 55.5 -26.9375 55.5 -28.6875 54.75 C-28.81125 53.71875 -28.935 52.6875 -29.0625 51.625 C-29.82990835 48.87558015 -30.46983679 47.91012931 -32.80078125 46.1953125 C-34.55153834 45.21233811 -36.30832932 44.2400505 -38.0703125 43.27734375 C-43.3247292 40.21096027 -46.91651854 36.87937735 -49 31.125 C-48.6875 27.75 -48.6875 27.75 -46.5 25.0625 C-41.8242332 21.708387 -36.12769695 20.38205908 -30.6875 18.75 C-30.0275 14.46 -29.3675 10.17 -28.6875 5.75 C-27.3675 5.42 -26.0475 5.09 -24.6875 4.75 C-22.64756486 9.67984325 -21.28097032 13.32960425 -21.6875 18.75 C-21.00945312 18.70359375 -20.33140625 18.6571875 -19.6328125 18.609375 C-12.07891108 18.31642591 -4.9476009 19.2204732 1.06640625 24.203125 C2.3125 25.75 2.3125 25.75 2.75 28.6875 C2.3125 31.75 2.3125 31.75 0.625 34.125 C-2.07540237 36.02258004 -3.45810081 36.10882213 -6.6875 35.75 C-6.6875 34.43 -6.6875 33.11 -6.6875 31.75 C-6.0275 31.75 -5.3675 31.75 -4.6875 31.75 C-4.6875 31.09 -4.6875 30.43 -4.6875 29.75 C-10.2975 28.76 -15.9075 27.77 -21.6875 26.75 C-21.1925 35.165 -21.1925 35.165 -20.6875 43.75 C-4.81302018 44.53827746 -4.81302018 44.53827746 8.9375 37.4375 C11.39288992 32.63832878 11.64181594 29.18487658 10.4375 23.9375 C4.87508808 11.1563135 -7.59490055 4.68359341 -19.75 -0.5625 C-31.13768039 -4.72872453 -41.70860228 -5.66518644 -53.6875 -5.25 C-53.3575 -4.26 -53.0275 -3.27 -52.6875 -2.25 C-54.9975 -2.25 -57.3075 -2.25 -59.6875 -2.25 C-60.4375 -4.5 -60.4375 -4.5 -60.6875 -7.25 C-48.69098288 -24.74492079 -12.80390978 -7.63206403 0 0 Z M-39.875 28.25 C-40.96167969 28.5284375 -42.04835938 28.806875 -43.16796875 29.09375 C-43.99941406 29.3103125 -44.83085937 29.526875 -45.6875 29.75 C-44.20001262 33.53557181 -42.13400134 35.16567193 -38.8125 37.4375 C-37.51699219 38.34048828 -37.51699219 38.34048828 -36.1953125 39.26171875 C-33.56806392 40.98282701 -33.56806392 40.98282701 -29.6875 41.75 C-30.0175 36.8 -30.3475 31.85 -30.6875 26.75 C-34.00294299 26.75 -36.66751389 27.42226165 -39.875 28.25 Z " fill="#FFFFFF" transform="translate(410.6875,121.25)"/>
<path d="M0 0 C0.66 0 1.32 0 2 0 C6.455 13.365 6.455 13.365 11 27 C20.57 27.33 30.14 27.66 40 28 C40 28.66 40 29.32 40 30 C37.86524214 31.66703001 35.72990101 33.21987527 33.5 34.75 C32.21564265 35.64771803 30.93178617 36.54615309 29.6484375 37.4453125 C29.02291992 37.88133789 28.39740234 38.31736328 27.75292969 38.76660156 C24.44068663 41.0971659 21.22404215 43.54972796 18 46 C19.2445996 53.72766317 21.48290006 61.0321371 23.87890625 68.4609375 C24.67444963 70.97230441 25.41470777 73.43523629 26 76 C20.24980157 72.91490018 15.20272833 69.25823289 10.0625 65.25 C9.28326172 64.64800781 8.50402344 64.04601562 7.70117188 63.42578125 C5.79771933 61.95440076 3.89745518 60.47910099 2 59 C-0.9756662 60.39421664 -3.54376457 62.02086115 -6.1875 63.96875 C-6.96867187 64.53980469 -7.74984375 65.11085938 -8.5546875 65.69921875 C-9.36164063 66.29347656 -10.16859375 66.88773437 -11 67.5 C-12.60213506 68.67984707 -14.2062343 69.85703266 -15.8125 71.03125 C-16.52019531 71.55267578 -17.22789063 72.07410156 -17.95703125 72.61132812 C-19.91130675 73.93971233 -21.86280515 74.99864016 -24 76 C-21.83687417 60.35338986 -6.0891589 48.87525689 5 39 C3.33105042 39.57676934 1.66496679 40.16183238 0 40.75 C-1.3921875 41.23726562 -1.3921875 41.23726562 -2.8125 41.734375 C-6.66672918 43.2647307 -10.31904839 45.09646221 -14 47 C-14.54938232 46.59160889 -15.09876465 46.18321777 -15.66479492 45.76245117 C-18.17062029 43.90177346 -20.67902945 42.04460985 -23.1875 40.1875 C-24.05181641 39.54490234 -24.91613281 38.90230469 -25.80664062 38.24023438 C-26.64775391 37.61826172 -27.48886719 36.99628906 -28.35546875 36.35546875 C-29.12528076 35.78465576 -29.89509277 35.21384277 -30.68823242 34.62573242 C-33.02788886 32.92497054 -33.02788886 32.92497054 -35.7902832 31.4152832 C-36.51948975 30.94823975 -37.24869629 30.48119629 -38 30 C-38 29.34 -38 28.68 -38 28 C-28.1 28 -18.2 28 -8 28 C-7.34 24.7 -6.68 21.4 -6 18 C-5.53949727 16.34964839 -5.04850159 14.70650463 -4.4921875 13.0859375 C-4.22792969 12.30605469 -3.96367188 11.52617188 -3.69140625 10.72265625 C-3.42199219 9.94792969 -3.15257812 9.17320313 -2.875 8.375 C-2.59785156 7.56160156 -2.32070312 6.74820313 -2.03515625 5.91015625 C-1.36236647 3.9381862 -0.68200348 1.96880249 0 0 Z " fill="#FC432E" transform="translate(125,102)"/>
<path d="M0 0 C2.8125 2.4375 2.8125 2.4375 5 5 C5.928125 6.051875 5.928125 6.051875 6.875 7.125 C7.24625 7.74375 7.6175 8.3625 8 9 C7 12 7 12 4.78515625 13.16796875 C3.88667969 13.50441406 2.98820312 13.84085938 2.0625 14.1875 C1.16660156 14.53167969 0.27070312 14.87585938 -0.65234375 15.23046875 C-3 16 -3 16 -5 16 C-5.185625 15.360625 -5.37125 14.72125 -5.5625 14.0625 C-6.9373176 11.60832924 -6.9373176 11.60832924 -10.5 11.125 C-12.2325 11.063125 -12.2325 11.063125 -14 11 C-14.66 11.66 -15.32 12.32 -16 13 C-16.05901922 15.02077346 -16.05901922 15.02077346 -15 17 C-11.6561306 19.19588606 -8.12908981 20.94899862 -4.5625 22.75 C1.98861482 26.34340125 6.42041704 30.04346606 8.5625 37.375 C9.40695835 42.42451627 8.3471504 46.49837573 6 51 C1.69216699 56.35568428 -3.06740404 58.89351545 -9.8125 59.875 C-16.50188177 60.35856977 -21.74690489 58.91023281 -26.875 54.5625 C-27.57625 53.716875 -28.2775 52.87125 -29 52 C-29.598125 51.34 -30.19625 50.68 -30.8125 50 C-32.28497775 47.52003747 -32.23631935 45.83583219 -32 43 C-23.85416667 39.16666667 -23.85416667 39.16666667 -20 40 C-18.64613064 41.65002828 -17.31321858 43.3174387 -16 45 C-12.98508014 46.13059495 -11.67837962 46.27501877 -8.6875 45.0625 C-7.8521875 44.5365625 -7.8521875 44.5365625 -7 44 C-6.67096485 41.62621297 -6.67096485 41.62621297 -7 39 C-8.63829821 37.26247226 -8.63829821 37.26247226 -10.9375 36 C-11.75605469 35.4946875 -12.57460938 34.989375 -13.41796875 34.46875 C-15.83747054 33.09245246 -18.28507805 31.7925305 -20.75 30.5 C-25.80362704 27.76114618 -29.13812567 24.58562298 -31 19 C-31.63818254 13.60160344 -31.35367674 9.18222775 -28.33984375 4.5703125 C-20.94164504 -4.10046266 -9.86045942 -5.33226561 0 0 Z " fill="#FFFFFF" transform="translate(42,113)"/>
<path d="M0 0 C1.45713095 -0.01140266 2.91422416 -0.03166347 4.37109375 -0.06152344 C30.64761596 -0.59839109 54.00979559 9.68278544 73.40258789 27.29516602 C83.70428154 37.28585195 91.98306625 48.93495333 97.40258789 62.29516602 C97.40258789 63.61516602 97.40258789 64.93516602 97.40258789 66.29516602 C95.42258789 66.29516602 93.44258789 66.29516602 91.40258789 66.29516602 C90.84571289 65.18399414 90.28883789 64.07282227 89.71508789 62.92797852 C85.32054914 54.30572084 80.83832025 46.59084538 74.40258789 39.29516602 C73.94883789 38.69961914 73.49508789 38.10407227 73.02758789 37.49047852 C59.87090098 20.49642458 36.1244664 10.31947034 15.40258789 7.29516602 C-17.08399364 4.77458343 -40.65451526 14.25061583 -65.59741211 34.29516602 C-67.15991211 33.04516602 -67.15991211 33.04516602 -68.59741211 31.29516602 C-68.48954358 28.59845287 -67.75010307 27.47157596 -65.98803711 25.43579102 C-59.66981176 19.8554606 -52.91066875 15.46902958 -45.59741211 11.29516602 C-44.7865918 10.82079102 -43.97577148 10.34641602 -43.14038086 9.85766602 C-29.84166873 2.6079422 -14.94422764 0.08094033 0 0 Z " fill="#0091F6" transform="translate(474.597412109375,59.704833984375)"/>
<path d="M0 0 C24.63414634 0 24.63414634 0 30.875 5.5625 C34.53012288 9.75514095 34.27212263 12.89165178 34.22265625 18.3046875 C33.94981644 21.60748514 33.09261939 23.44235408 31 26 C29.99648752 27.33069173 28.99597807 28.66365968 28 30 C28.27263672 30.50450684 28.54527344 31.00901367 28.82617188 31.52880859 C30.05507786 33.80858674 31.27760374 36.0917253 32.5 38.375 C32.92925781 39.1690625 33.35851562 39.963125 33.80078125 40.78125 C34.20683594 41.54179687 34.61289062 42.30234375 35.03125 43.0859375 C35.40830078 43.7876709 35.78535156 44.4894043 36.17382812 45.21240234 C37 47 37 47 37 49 C33.2288429 49.47552244 29.75340756 49.68388358 26 49 C23.48222669 46.73053919 22.35852508 44.06470422 21 41 C20.2413015 39.70116845 19.47131305 38.40883173 18.6875 37.125 C17 34 17 34 17 32 C15.02 32 13.04 32 11 32 C11 37.61 11 43.22 11 49 C7.37 49 3.74 49 0 49 C0 32.83 0 16.66 0 0 Z M11 11 C11 14.3 11 17.6 11 21 C12.588125 21.061875 14.17625 21.12375 15.8125 21.1875 C16.70582031 21.22230469 17.59914063 21.25710937 18.51953125 21.29296875 C21.03589473 21.19800682 21.03589473 21.19800682 22.83984375 19.68359375 C24.32365036 17.90944483 24.32365036 17.90944483 23.75 14.875 C23.29066476 12.12209159 23.29066476 12.12209159 22 11 C20.14712498 10.92773498 18.29166122 10.9161878 16.4375 10.9375 C15.42558594 10.94652344 14.41367187 10.95554688 13.37109375 10.96484375 C12.58863281 10.97644531 11.80617188 10.98804688 11 11 Z " fill="#FFFFFF" transform="translate(778,120)"/>
<path d="M0 0 C13.2 0 26.4 0 40 0 C40 4.29 40 8.58 40 13 C35.71 13 31.42 13 27 13 C27 28.84 27 44.68 27 61 C22.38 61 17.76 61 13 61 C13 45.16 13 29.32 13 13 C8.71 13 4.42 13 0 13 C0 8.71 0 4.42 0 0 Z " fill="#FFFFFF" transform="translate(53,111)"/>
<path d="M0 0 C12.87 0 25.74 0 39 0 C37.36987826 4.07530434 35.67171728 7.4396484 33.4453125 11.18359375 C32.93108231 12.0505764 32.93108231 12.0505764 32.40646362 12.93507385 C31.68363176 14.15213612 30.95908233 15.36817976 30.23291016 16.58325195 C29.13174923 18.42620419 28.03613861 20.27236404 26.94140625 22.11914062 C23.73998509 27.50241658 20.47709348 32.78435979 17 38 C23.93 38.33 30.86 38.66 38 39 C38 42.3 38 45.6 38 49 C24.8 49 11.6 49 -2 49 C-0.40983156 45.02457889 1.13484801 41.95735277 3.375 38.375 C3.71080078 37.83520508 4.04660156 37.29541016 4.39257812 36.73925781 C6.64127515 33.13455254 8.91924915 29.54840191 11.1953125 25.9609375 C11.7413916 25.09936035 12.2874707 24.2377832 12.85009766 23.35009766 C13.94361087 21.62681921 15.03961218 19.9051169 16.13818359 18.18505859 C16.88962646 17.00290771 16.88962646 17.00290771 17.65625 15.796875 C18.10806641 15.08885742 18.55988281 14.38083984 19.02539062 13.65136719 C20.08471099 12.17605305 20.08471099 12.17605305 20 11 C13.4 11 6.8 11 0 11 C0 7.37 0 3.74 0 0 Z " fill="#FFFFFF" transform="translate(818,120)"/>
<path d="M0 0 C3.33271235 1.27257107 6.13816064 2.880119 9 5 C9 9.33094958 8.03435531 11.27034861 6 15 C5.443125 14.71125 4.88625 14.4225 4.3125 14.125 C3.549375 13.75375 2.78625 13.3825 2 13 C1.278125 12.62875 0.55625 12.2575 -0.1875 11.875 C-4.1382247 10.64588565 -7.89535484 10.83903352 -12 11 C-12 12.65 -12 14.3 -12 16 C-11.05125 16.4125 -10.1025 16.825 -9.125 17.25 C-8.49078125 17.52585938 -7.8565625 17.80171875 -7.203125 18.0859375 C-5.64506962 18.73236473 -4.06979303 19.33799446 -2.484375 19.9140625 C3.44284955 22.0968428 8.04559494 24.09118988 11 30 C11.66172966 35.32638136 11.40292839 39.95145381 8.3828125 44.4921875 C4.50666735 48.71871865 -0.25172515 50.22590956 -5.875 50.5 C-13.08180644 50.1997164 -19.40043085 47.46175716 -25 43 C-24.39009109 39.44219804 -23.4216319 36.3171411 -22 33 C-20.0139019 33.97547296 -18.05875322 34.96617987 -16.140625 36.0703125 C-11.1703778 38.84297106 -7.68609783 39.58821702 -2 39 C-1.34 38.34 -0.68 37.68 0 37 C-0.05494808 34.92547888 -0.05494808 34.92547888 -1 33 C-3.6765427 31.83205409 -6.23268708 30.89384659 -9 30 C-15.93611691 27.61538582 -20.56478066 25.87043868 -24 19 C-24.37381854 13.39272183 -24.18490827 9.83227462 -21 5 C-14.47438902 -0.888966 -8.60310639 -0.86676527 0 0 Z " fill="#FFFFFF" transform="translate(691,120)"/>
<path d="M0 0 C2.1875 0 2.1875 0 5 1 C10.04362566 6.35885227 11.12909267 12.92875241 12 20 C12.12375 19.195625 12.2475 18.39125 12.375 17.5625 C12.58125 16.716875 12.7875 15.87125 13 15 C13.66 14.67 14.32 14.34 15 14 C14.690625 13.4225 14.38125 12.845 14.0625 12.25 C13.07128616 10.15095893 12.52451199 8.24925862 12 6 C18.82539569 4.17989448 25.94878554 2.79588523 33 4 C35.35546875 5.8359375 35.35546875 5.8359375 37 8 C37 8.99 37 9.98 37 11 C32.71 11.66 28.42 12.32 24 13 C25.32 13.33 26.64 13.66 28 14 C28.99 14.33 29.98 14.66 31 15 C31.042721 16.66611905 31.04063832 18.33382885 31 20 C30 21 30 21 27.71484375 21.09765625 C26.79832031 21.08605469 25.88179688 21.07445312 24.9375 21.0625 C24.01839844 21.05347656 23.09929687 21.04445312 22.15234375 21.03515625 C21.44207031 21.02355469 20.73179687 21.01195312 20 21 C20 21.99 20 22.98 20 24 C20.68707031 23.90460938 21.37414062 23.80921875 22.08203125 23.7109375 C22.98308594 23.60007813 23.88414062 23.48921875 24.8125 23.375 C25.70582031 23.25898438 26.59914063 23.14296875 27.51953125 23.0234375 C30 23 30 23 33 25 C33 26.32 33 27.64 33 29 C31.35546875 30.44921875 31.35546875 30.44921875 29.1875 31.6875 C28.47980469 32.10386719 27.77210938 32.52023438 27.04296875 32.94921875 C22.93357851 35.06284394 19.58242227 35.48236024 15 35 C12.7705435 32.7705435 11.40073893 30.80147786 10 28 C9.13375 29.0209375 9.13375 29.0209375 8.25 30.0625 C6 32 6 32 4.0625 32.125 C-1.03969292 29.34198568 -3.68524078 24.11683617 -6 19 C-6.06058594 19.84304687 -6.12117188 20.68609375 -6.18359375 21.5546875 C-6.26738281 22.65039062 -6.35117187 23.74609375 -6.4375 24.875 C-6.51871094 25.96554688 -6.59992188 27.05609375 -6.68359375 28.1796875 C-7 31 -7 31 -8 33 C-12.875 32.125 -12.875 32.125 -14 31 C-14.56708245 22.45014159 -14.35711257 14.97314236 -11 7 C-9.35 6.67 -7.7 6.34 -6 6 C-5.27683594 7.04800781 -5.27683594 7.04800781 -4.5390625 8.1171875 C-3.90742188 9.02726563 -3.27578125 9.93734375 -2.625 10.875 C-1.99851562 11.77992188 -1.37203125 12.68484375 -0.7265625 13.6171875 C0.9298095 16.03494125 0.9298095 16.03494125 3 18 C2.7834375 17.11957031 2.566875 16.23914063 2.34375 15.33203125 C2.0653125 14.17058594 1.786875 13.00914062 1.5 11.8125 C1.2215625 10.66394531 0.943125 9.51539063 0.65625 8.33203125 C0.08504615 5.43181171 -0.13283779 2.93903615 0 0 Z " fill="#FFFFFF" transform="translate(486,135)"/>
<path d="M0 0 C1.60462066 2.40693099 2.88348564 4.65991627 4.15478516 7.24023438 C4.57506989 8.09121704 4.99535461 8.94219971 5.42837524 9.81896973 C5.87740204 10.73464722 6.32642883 11.65032471 6.7890625 12.59375 C7.48399307 14.0083551 7.48399307 14.0083551 8.19296265 15.45153809 C9.17085766 17.44480547 10.14752176 19.43867715 11.12304688 21.43310547 C12.62051273 24.49083727 14.12652954 27.54426031 15.6328125 30.59765625 C16.58126026 32.53359407 17.52919443 34.4697836 18.4765625 36.40625 C18.92963776 37.32192749 19.38271301 38.23760498 19.84951782 39.18103027 C20.26349823 40.03201294 20.67747864 40.88299561 21.10400391 41.75976562 C21.47103424 42.50794556 21.83806458 43.25612549 22.21621704 44.02697754 C23 46 23 46 23 49 C19.37 49 15.74 49 12 49 C11.34 46.69 10.68 44.38 10 42 C3.4 42 -3.2 42 -10 42 C-10.66 43.98 -11.32 45.96 -12 48 C-13 49 -13 49 -15.50390625 49.09765625 C-16.51324219 49.08605469 -17.52257812 49.07445312 -18.5625 49.0625 C-19.57441406 49.05347656 -20.58632813 49.04445312 -21.62890625 49.03515625 C-22.41136719 49.02355469 -23.19382812 49.01195312 -24 49 C-22.69219211 45.6483465 -21.27537059 42.38975313 -19.71484375 39.1484375 C-19.27068115 38.22313232 -18.82651855 37.29782715 -18.36889648 36.34448242 C-17.89653564 35.36455322 -17.4241748 34.38462402 -16.9375 33.375 C-14.04984496 27.37130135 -11.16322076 21.36812632 -8.34375 15.33203125 C-7.93648682 14.4620752 -7.52922363 13.59211914 -7.10961914 12.69580078 C-6.34234211 11.05385032 -5.57837473 9.41034821 -4.81811523 7.76513672 C-2.22188614 2.22188614 -2.22188614 2.22188614 0 0 Z M-1 23 C-2.98 27.455 -2.98 27.455 -5 32 C-1.7 32 1.6 32 5 32 C3.35 29.03 1.7 26.06 0 23 C-0.33 23 -0.66 23 -1 23 Z " fill="#FFFFFF" transform="translate(754,120)"/>
<path d="M0 0 C3.3 0 6.6 0 10 0 C10 6.6 10 13.2 10 20 C16.6 20 23.2 20 30 20 C30 23.63 30 27.26 30 31 C23.4 31 16.8 31 10 31 C10 37.6 10 44.2 10 51 C6.7 51 3.4 51 0 51 C0 44.4 0 37.8 0 31 C-6.6 31 -13.2 31 -20 31 C-20 27.37 -20 23.74 -20 20 C-13.4 20 -6.8 20 0 20 C0 13.4 0 6.8 0 0 Z " fill="#FFFFFF" transform="translate(243,116)"/>
<path d="M0 0 C-0.59104765 4.84659077 -1.97944157 8.60748167 -4 13 C-3.64808594 12.54109375 -3.29617188 12.0821875 -2.93359375 11.609375 C0.64544715 7.16127195 3.89472477 4.55263762 9 2 C12.6246099 3.90768942 14.52482029 5.15200764 16 9 C16.3474772 15.26617224 14.38808273 19.8632294 11 25 C10.34 25 9.68 25 9 25 C9 25.66 9 26.32 9 27 C7.75264433 27.6509259 6.50198168 28.29551669 5.25 28.9375 C4.55390625 29.29714844 3.8578125 29.65679687 3.140625 30.02734375 C1 31 1 31 -1.1328125 31.25390625 C-3.30752461 31.87338434 -3.30752461 31.87338434 -4.1953125 34.625 C-4.50210938 35.73875 -4.80890625 36.8525 -5.125 38 C-5.45242188 39.16917969 -5.77984375 40.33835938 -6.1171875 41.54296875 C-7.17421823 45.68222627 -8.14852168 49.81356494 -9 54 C-11.88949684 53.68762196 -13.58633099 53.35661121 -15.8125 51.4375 C-18.22941248 46.47646913 -17.50178457 42.53069636 -15.83984375 37.4609375 C-15.13914862 35.49574949 -14.4274238 33.53483632 -13.71337891 31.57446289 C-12.10400308 26.93925195 -11.86686082 23.78027628 -12.7734375 19.04296875 C-13.3296028 14.02789199 -11.17596481 9.66410114 -8.34375 5.65625 C-3.64348592 0 -3.64348592 0 0 0 Z M9 10 C7.18371224 11.94375954 7.18371224 11.94375954 5.375 14.375 C4.74335937 15.18710938 4.11171875 15.99921875 3.4609375 16.8359375 C1.81349192 18.84109879 1.81349192 18.84109879 2 21 C5.0483248 20.67339377 6.00507689 19.99477806 8.1875 17.75 C9.98276778 15.02614544 10.63365868 13.20548651 11 10 C10.34 10 9.68 10 9 10 Z M-6 14 C-5 16 -5 16 -5 16 Z " fill="#FFFFFF" transform="translate(533,138)"/>
<path d="M0 0 C12.54 0 25.08 0 38 0 C38 3.63 38 7.26 38 11 C33.38 11 28.76 11 24 11 C24 23.54 24 36.08 24 49 C20.7 49 17.4 49 14 49 C13.67 36.46 13.34 23.92 13 11 C9.04 11 5.08 11 1 11 C0.67 10.67 0.34 10.34 0 10 C0 6.7 0 3.4 0 0 Z " fill="#FFFFFF" transform="translate(702,120)"/>
<path d="M0 0 C-1.75 3.875 -1.75 3.875 -4 5 C-6.204364 5.22950319 -8.41392173 5.41075933 -10.625 5.5625 C-11.81351562 5.64628906 -13.00203125 5.73007813 -14.2265625 5.81640625 C-15.14179688 5.87699219 -16.05703125 5.93757812 -17 6 C-16.18015625 6.15855469 -15.3603125 6.31710938 -14.515625 6.48046875 C-5.76341948 8.37538406 -5.76341948 8.37538406 -2.25 11.25 C-0.60913254 14.85990842 -0.36937433 17.07610692 -1 21 C-3.1727422 23.63016161 -4.94673788 25.47336894 -8 27 C-15.43982289 27.68866342 -20.963296 27.59314435 -27 23 C-29 20 -29 20 -28.75 17.4375 C-28 15 -28 15 -26 13 C-26.66 12.62875 -27.32 12.2575 -28 11.875 C-30 10 -30 10 -30.625 7.125 C-29.92552894 3.62764469 -28.84304803 2.13637298 -25.9609375 0.0390625 C-18.19790815 -4.0744152 -7.68896461 -4.28335015 0 0 Z M-9 15 C-9 15.66 -9 16.32 -9 17 C-8.34 17 -7.68 17 -7 17 C-7 16.34 -7 15.68 -7 15 C-7.66 15 -8.32 15 -9 15 Z M-25 17 C-25 17.66 -25 18.32 -25 19 C-22.71294169 20.14352916 -21.40735238 20.10334439 -18.875 20.0625 C-17.59625 20.041875 -16.3175 20.02125 -15 20 C-18.26545761 18.11608215 -21.28111761 17.50712033 -25 17 Z " fill="#FFFFFF" transform="translate(472,141)"/>
<path d="M0 0 C21.55 0 21.55 0 27.875 5.5 C30.72834256 9.172528 30.5769878 12.941357 30.36328125 17.44140625 C29.91449933 20.60218213 29.05975291 22.55881137 27 25 C26.608125 25.556875 26.21625 26.11375 25.8125 26.6875 C19.62823352 31.16576193 11.20050476 30.16364784 4 30 C4 36.27 4 42.54 4 49 C2.68 49 1.36 49 0 49 C0 32.83 0 16.66 0 0 Z M4 5 C4 11.6 4 18.2 4 25 C6.536875 25.0825 9.07375 25.165 11.6875 25.25 C12.47729248 25.28641602 13.26708496 25.32283203 14.08081055 25.36035156 C17.90260839 25.42027101 19.63709783 25.23202728 22.95703125 23.109375 C26.12754605 19.83580331 26.27613279 17.58300616 26.2265625 13.0390625 C25.90314628 10.12831652 24.79339425 8.27623116 23 6 C19.69428083 4.34714041 16.004622 4.8994882 12.375 4.9375 C8.229375 4.9684375 8.229375 4.9684375 4 5 Z " fill="#FFFFFF" transform="translate(862,120)"/>
<path d="M0 0 C4.70588235 0.70588235 4.70588235 0.70588235 6 2 C6.9500455 7.17246993 7 11.63630917 7 17 C12.28 17 17.56 17 23 17 C23 18.98 23 20.96 23 23 C22 24 22 24 18.83984375 24.09765625 C15.2265625 24.06510417 11.61328125 24.03255208 8 24 C7.67 28.95 7.34 33.9 7 39 C4.69 39 2.38 39 0 39 C0.33 34.05 0.66 29.1 1 24 C-3.89153471 24.0395679 -3.89153471 24.0395679 -8.78295898 24.09008789 C-10.52221717 24.09724913 -12.26145304 24.05024702 -14 24 C-14.33 23.67 -14.66 23.34 -15 23 C-15 21.02 -15 19.04 -15 17 C-10.05 16.67 -5.1 16.34 0 16 C-0.36833897 11.10807096 -0.36833897 11.10807096 -0.74829102 6.21704102 C-0.87169543 4.48038342 -0.9376445 2.73991955 -1 1 C-0.67 0.67 -0.34 0.34 0 0 Z " fill="#FFFFFF" transform="translate(569,130)"/>
<path d="M0 0 C1.32 0 2.64 0 4 0 C5.94502783 5.20810077 7.88364052 10.41853025 9.81665039 15.63110352 C10.47347177 17.39964217 11.13196385 19.16756135 11.79223633 20.93481445 C18.82711277 39.77081595 18.82711277 39.77081595 21 49 C18.58520508 48.64770508 18.58520508 48.64770508 16 48 C14.63671875 45.63671875 14.63671875 45.63671875 13.6875 42.6875 C13.19830078 41.23923828 13.19830078 41.23923828 12.69921875 39.76171875 C12 37 12 37 12 33 C5.4 33 -1.2 33 -8 33 C-8.33 34.98 -8.66 36.96 -9 39 C-9.63509263 40.81090669 -10.32101115 42.60499436 -11.0625 44.375 C-11.60583984 45.68597656 -11.60583984 45.68597656 -12.16015625 47.0234375 C-12.57587891 48.00183594 -12.57587891 48.00183594 -13 49 C-14.32 49 -15.64 49 -17 49 C-16.27137246 44.63926658 -14.89785226 40.57646315 -13.41796875 36.42578125 C-13.16251785 35.7019072 -12.90706696 34.97803314 -12.64387512 34.23222351 C-12.10332064 32.70282402 -11.56110494 31.17401079 -11.01733398 29.64575195 C-10.19686954 27.33884443 -9.38218654 25.0299593 -8.56835938 22.72070312 C-5.8673118 15.08192387 -3.11573406 7.48215824 0 0 Z M1 8 C-1.31 14.93 -3.62 21.86 -6 29 C-0.72 29 4.56 29 10 29 C7.69 22.07 5.38 15.14 3 8 C2.34 8 1.68 8 1 8 Z " fill="#FFFFFF" transform="translate(941,120)"/>
<path d="M0 0 C1.33984375 1.515625 1.33984375 1.515625 2.21484375 4.890625 C0.85629557 10.51889604 -2.59298294 13.60791061 -7.4375 16.62109375 C-11.56940614 18.61677631 -15.16130066 18.60214145 -19.66015625 18.515625 C-20.65015625 19.175625 -21.64015625 19.835625 -22.66015625 20.515625 C-25.95530486 17.22047639 -26.53062027 13.5519128 -27.09765625 9.015625 C-26.52627495 4.44457463 -24.92119242 2.70419369 -21.66015625 -0.484375 C-14.42018896 -5.60532747 -7.1055913 -5.60713327 0 0 Z M-12.66015625 7.515625 C-14.98293041 10.1247637 -14.98293041 10.1247637 -16.66015625 12.515625 C-11.27918721 12.08514748 -7.80522468 11.05409805 -3.66015625 7.515625 C-3.66015625 6.195625 -3.66015625 4.875625 -3.66015625 3.515625 C-7.75648122 3.515625 -9.42083506 5.06960696 -12.66015625 7.515625 Z M-21.66015625 6.515625 C-20.66015625 8.515625 -20.66015625 8.515625 -20.66015625 8.515625 Z " fill="#FFFFFF" transform="translate(453.66015625,117.484375)"/>
<path d="M0 0 C3.12087911 0.30112587 4.5754994 0.50353739 6.65332031 2.93359375 C7.12350586 3.75988281 7.59369141 4.58617188 8.078125 5.4375 C8.59890625 6.33210938 9.1196875 7.22671875 9.65625 8.1484375 C10.1821875 9.08945313 10.708125 10.03046875 11.25 11 C12.31701157 12.85456772 13.38468424 14.70875529 14.453125 16.5625 C14.91879883 17.38878906 15.38447266 18.21507812 15.86425781 19.06640625 C16.85509744 20.93895808 16.85509744 20.93895808 18 22 C18.37809814 21.33355469 18.75619629 20.66710937 19.14575195 19.98046875 C20.85646659 16.98022722 22.58417599 13.9901291 24.3125 11 C24.90740234 9.95070312 25.50230469 8.90140625 26.11523438 7.8203125 C26.98051758 6.33144531 26.98051758 6.33144531 27.86328125 4.8125 C28.39219971 3.89082031 28.92111816 2.96914062 29.46606445 2.01953125 C29.97226318 1.35308594 30.47846191 0.68664062 31 0 C31.99 0 32.98 0 34 0 C33.72322866 5.32784834 31.52080622 8.55897074 28.69433594 12.88012695 C20.94773091 24.85834288 19.17428952 34.8832121 20 49 C18.68 49 17.36 49 16 49 C16.09023438 47.77410156 16.18046875 46.54820312 16.2734375 45.28515625 C16.80073398 29.31246701 10.85913609 18.5417504 2.3828125 5.30224609 C1 3 1 3 0 0 Z " fill="#FFFFFF" transform="translate(956,120)"/>
<path d="M0 0 C1.65 0 3.3 0 5 0 C5 14.52 5 29.04 5 44 C11.93 44.33 18.86 44.66 26 45 C26 46.32 26 47.64 26 49 C17.42 49 8.84 49 0 49 C0 32.83 0 16.66 0 0 Z " fill="#FFFFFF" transform="translate(895,120)"/>
<path d="M0 0 C1.65 0.33 3.3 0.66 5 1 C6.34630816 5.79600696 6.43671113 10.61025584 6.6875 15.5625 C6.74744141 16.52091797 6.80738281 17.47933594 6.86914062 18.46679688 C6.91619141 19.38654297 6.96324219 20.30628906 7.01171875 21.25390625 C7.05772217 22.09252197 7.10372559 22.9311377 7.15112305 23.79516602 C7 26 7 26 5 29 C3.02 28.67 1.04 28.34 -1 28 C-3.7271894 19.14208882 -2.27457364 8.81397284 0 0 Z " fill="#FFFFFF" transform="translate(435,140)"/>
<path d="M0 0 C7.7101539 7.02984621 13.0791218 16.39245803 17 26 C17 27.32 17 28.64 17 30 C15.02 30 13.04 30 11 30 C10.12988281 28.31583984 10.12988281 28.31583984 9.2421875 26.59765625 C5.18628317 18.80666831 1.17592269 11.12450535 -4 4 C-2.68 2.68 -1.36 1.36 0 0 Z " fill="#2BEAF5" transform="translate(555,96)"/>
<path d="M0 0 C3.71746379 3.20471016 5.35628302 6.39759246 7 11 C7 12.32 7 13.64 7 15 C5.02 15 3.04 15 1 15 C0.16180842 13.37750059 -0.6704116 11.75191503 -1.5 10.125 C-1.9640625 9.22007813 -2.428125 8.31515625 -2.90625 7.3828125 C-4 5 -4 5 -4 3 C-2 1.375 -2 1.375 0 0 Z " fill="#D8FAFC" transform="translate(565,111)"/>
<path d="M0 0 C2.2477975 2.05233685 3.0022242 3.00667261 4 6 C2.75 7.5625 2.75 7.5625 1 9 C-1.0625 9 -1.0625 9 -3 8 C-4.25 5.4375 -4.25 5.4375 -5 3 C-3.35 2.01 -1.7 1.02 0 0 Z " fill="#70F1F9" transform="translate(562,105)"/>
<path d="M0 0 C0.66 0.33 1.32 0.66 2 1 C2.40729228 3.32156597 2.74438677 5.6568787 3 8 C1.02 8 -0.96 8 -3 8 C-3.66 6.02 -4.32 4.04 -5 2 C-2.625 0.9375 -2.625 0.9375 0 0 Z " fill="#F8FEFE" transform="translate(569,118)"/>
<path d="M0 0 C0.99 0.66 1.98 1.32 3 2 C2 5 2 5 -0.0625 6.1875 C-0.701875 6.455625 -1.34125 6.72375 -2 7 C-2.66 6.01 -3.32 5.02 -4 4 C-2.68 2.68 -1.36 1.36 0 0 Z " fill="#10E7F4" transform="translate(555,96)"/>
<path d="M0 0 C0.66 0.99 1.32 1.98 2 3 C0.75 4.5625 0.75 4.5625 -1 6 C-3.1875 5.6875 -3.1875 5.6875 -5 5 C-3.35 3.35 -1.7 1.7 0 0 Z " fill="#96F4FA" transform="translate(564,108)"/>
<path d="M0 0 C0.66 0.33 1.32 0.66 2 1 C0.63016497 4.16115776 0.0109362 4.9927092 -3 7 C-3.33 5.68 -3.66 4.36 -4 3 C-2.68 2.01 -1.36 1.02 0 0 Z " fill="#B9F7FB" transform="translate(565,111)"/>
<path d="M0 0 C0.66 0.33 1.32 0.66 2 1 C2 1.99 2 2.98 2 4 C0.02 4.66 -1.96 5.32 -4 6 C-2.84826645 3.53199953 -1.95216435 1.95216435 0 0 Z " fill="#4CEDF7" transform="translate(560,102)"/>
</svg>
