<?xml version="1.0" encoding="UTF-8"?>
<svg version="1.1" xmlns="http://www.w3.org/2000/svg" width="420" height="120">
<path d="M0 0 C2.47081161 1.6199607 3.49765243 2.66493232 4.97265625 5.140625 C7.36720139 8.05909009 7.36720139 8.05909009 10.7890625 7.78515625 C13.24103262 7.56782835 15.68842339 7.28747618 18.125 6.9375 C21.85088627 6.68603411 24.16200912 7.33091422 27.59765625 8.703125 C27.92765625 8.703125 28.25765625 8.703125 28.59765625 8.703125 C28.59765625 7.713125 28.59765625 6.723125 28.59765625 5.703125 C29.58765625 5.703125 30.57765625 5.703125 31.59765625 5.703125 C32.25765625 6.363125 32.91765625 7.023125 33.59765625 7.703125 C35.71758 7.72528746 35.71758 7.72528746 38.03515625 7.328125 C41.26898688 6.8699546 44.32944177 6.703125 47.59765625 6.703125 C48.09265625 7.693125 48.09265625 7.693125 48.59765625 8.703125 C49.55671875 8.4246875 49.55671875 8.4246875 50.53515625 8.140625 C51.21578125 7.99625 51.89640625 7.851875 52.59765625 7.703125 C53.59765625 8.703125 53.59765625 8.703125 53.84765625 12.078125 C53.59765625 15.703125 53.59765625 15.703125 52.34765625 17.515625 C50.59765625 18.703125 50.59765625 18.703125 48.53515625 19.390625 C45.27614759 21.59834054 45.3229477 24.95578586 44.59765625 28.703125 C43.27765625 28.043125 41.95765625 27.383125 40.59765625 26.703125 C40.92765625 23.733125 41.25765625 20.763125 41.59765625 17.703125 C40.93765625 18.363125 40.27765625 19.023125 39.59765625 19.703125 C35.54897935 20.15297799 32.3617539 19.15743545 28.59765625 17.703125 C28.26765625 17.373125 27.93765625 17.043125 27.59765625 16.703125 C27.26765625 17.363125 26.93765625 18.023125 26.59765625 18.703125 C25.95828125 18.5175 25.31890625 18.331875 24.66015625 18.140625 C23.63921875 17.9240625 23.63921875 17.9240625 22.59765625 17.703125 C22.10265625 18.198125 22.10265625 18.198125 21.59765625 18.703125 C19.78515625 18.8359375 19.78515625 18.8359375 17.59765625 18.828125 C16.87578125 18.83070312 16.15390625 18.83328125 15.41015625 18.8359375 C13.59765625 18.703125 13.59765625 18.703125 12.59765625 17.703125 C12.26765625 18.363125 11.93765625 19.023125 11.59765625 19.703125 C10.60765625 19.703125 9.61765625 19.703125 8.59765625 19.703125 C8.10265625 18.218125 8.10265625 18.218125 7.59765625 16.703125 C6.81390625 17.3425 6.03015625 17.981875 5.22265625 18.640625 C0.01146161 22.15197758 -6.33465301 21.703125 -12.40234375 21.703125 C-14.96484375 19.390625 -14.96484375 19.390625 -17.40234375 16.703125 C-18.02109375 16.1875 -18.63984375 15.671875 -19.27734375 15.140625 C-19.64859375 14.66625 -20.01984375 14.191875 -20.40234375 13.703125 C-20.08984375 11.515625 -20.08984375 11.515625 -19.40234375 9.703125 C-17.09234375 9.043125 -14.78234375 8.383125 -12.40234375 7.703125 C-12.40234375 6.053125 -12.40234375 4.403125 -12.40234375 2.703125 C-11.41234375 2.703125 -10.42234375 2.703125 -9.40234375 2.703125 C-9.07234375 4.023125 -8.74234375 5.343125 -8.40234375 6.703125 C-5.76234375 7.363125 -3.12234375 8.023125 -0.40234375 8.703125 C-0.07234375 10.353125 0.25765625 12.003125 0.59765625 13.703125 C-1.05234375 14.033125 -2.70234375 14.363125 -4.40234375 14.703125 C-4.40234375 14.043125 -4.40234375 13.383125 -4.40234375 12.703125 C-5.72234375 12.373125 -7.04234375 12.043125 -8.40234375 11.703125 C-8.40234375 13.683125 -8.40234375 15.663125 -8.40234375 17.703125 C-6.94331117 17.39390616 -5.48513653 17.08063701 -4.02734375 16.765625 C-3.21523437 16.59160156 -2.403125 16.41757813 -1.56640625 16.23828125 C0.62711925 15.77981807 0.62711925 15.77981807 2.59765625 14.703125 C2.59765625 10.95112388 2.59414248 8.7566892 -0.0390625 5.97265625 C-7.94382598 -0.12530415 -14.64085994 -0.58119006 -24.40234375 -0.296875 C-24.07234375 -1.616875 -23.74234375 -2.936875 -23.40234375 -4.296875 C-14.90616185 -6.78780106 -7.58018592 -3.94821314 0 0 Z M22.59765625 9.703125 C21.93765625 10.363125 21.27765625 11.023125 20.59765625 11.703125 C21.58765625 12.033125 22.57765625 12.363125 23.59765625 12.703125 C23.26765625 11.713125 22.93765625 10.723125 22.59765625 9.703125 Z M38.59765625 10.703125 C39.58765625 11.033125 40.57765625 11.363125 41.59765625 11.703125 C41.59765625 12.363125 41.59765625 13.023125 41.59765625 13.703125 C40.60765625 14.198125 40.60765625 14.198125 39.59765625 14.703125 C40.58765625 15.033125 41.57765625 15.363125 42.59765625 15.703125 C42.59765625 14.053125 42.59765625 12.403125 42.59765625 10.703125 C41.27765625 10.703125 39.95765625 10.703125 38.59765625 10.703125 Z M-17.40234375 11.703125 C-17.07234375 12.693125 -16.74234375 13.683125 -16.40234375 14.703125 C-14.38726017 15.43636296 -14.38726017 15.43636296 -12.40234375 15.703125 C-12.40234375 14.383125 -12.40234375 13.063125 -12.40234375 11.703125 C-14.05234375 11.703125 -15.70234375 11.703125 -17.40234375 11.703125 Z " fill="#FFFFFF" transform="translate(187.40234375,67.296875)"/>
<path d="M0 0 C120.12 0 240.24 0 364 0 C364 0.33 364 0.66 364 1 C243.88 1 123.76 1 0 1 C0 0.67 0 0.34 0 0 Z " fill="#1A82D5" transform="translate(29,111)"/>
<path d="M0 0 C8.25251069 5.28753679 14.45243503 11.73276426 18.609375 20.671875 C18.609375 21.331875 18.609375 21.991875 18.609375 22.671875 C17.289375 22.671875 15.969375 22.671875 14.609375 22.671875 C14.32964844 22.10339844 14.04992187 21.53492187 13.76171875 20.94921875 C8.48980902 10.79528329 1.73663797 4.74035527 -9.21484375 1.05859375 C-20.55235194 -0.95651094 -31.22102009 0.30680229 -40.765625 6.921875 C-43.390625 8.671875 -43.390625 8.671875 -47.390625 8.671875 C-45.9277443 4.91714787 -44.08969275 3.5431536 -40.640625 1.546875 C-39.80015625 1.04929687 -38.9596875 0.55171875 -38.09375 0.0390625 C-26.97901218 -5.58255345 -11.14608603 -5.60452914 0 0 Z " fill="#006CF7" transform="translate(232.390625,47.328125)"/>
<path d="M0 0 C10.4565395 2.75936459 17.52588911 8.4021067 24 17 C27 22.22580645 27 22.22580645 27 25 C25.68 25 24.36 25 23 25 C22.72027344 24.43152344 22.44054687 23.86304687 22.15234375 23.27734375 C16.82808661 13.02258481 10.2923741 8.08104544 0 3 C0 2.01 0 1.02 0 0 Z " fill="#06E1F4" transform="translate(224,45)"/>
<path d="M0 0 C1.32 0.33 2.64 0.66 4 1 C4 2.65 4 4.3 4 6 C5.98 6 7.96 6 10 6 C10 7.32 10 8.64 10 10 C8.02 10 6.04 10 4 10 C4 11.98 4 13.96 4 16 C3.01 16 2.02 16 1 16 C1 14.02 1 12.04 1 10 C-0.98 10 -2.96 10 -5 10 C-5 8.68 -5 7.36 -5 6 C-3.02 6 -1.04 6 1 6 C0.67 4.02 0.34 2.04 0 0 Z " fill="#FFFFFF" transform="translate(248,71)"/>
<path d="M0 0 C2.375 1.25 2.375 1.25 3.375 4.25 C-0.80961538 9.17307692 -0.80961538 9.17307692 -4.9375 9.5625 C-6.2678125 9.4078125 -6.2678125 9.4078125 -7.625 9.25 C-8.3125 6.4375 -8.3125 6.4375 -8.625 3.25 C-6.37656043 -0.01023737 -3.88456611 -1.10987603 0 0 Z " fill="#FFFFFF" transform="translate(201.625,64.75)"/>
<path d="M0 0 C3 1 3 1 4.6875 3.9375 C6 7 6 7 6 9 C4.68 9 3.36 9 2 9 C0.4375 6.1875 0.4375 6.1875 -1 3 C-0.67 2.01 -0.34 1.02 0 0 Z " fill="#BFF8FB" transform="translate(245,61)"/>
<path d="M0 0 C1.98 0.66 3.96 1.32 6 2 C5.67 2.99 5.34 3.98 5 5 C2.525 4.01 2.525 4.01 0 3 C0 2.01 0 1.02 0 0 Z " fill="#00AEF6" transform="translate(224,45)"/>
</svg>
