<?xml version="1.0" encoding="UTF-8"?>
<svg version="1.1" xmlns="http://www.w3.org/2000/svg" width="620" height="252">
<path d="M0 0 C6.93 0 13.86 0 21 0 C25.07691562 4.88223228 26.83805851 7.4105903 29 13 C29.65837746 14.2038902 30.33945649 15.39630079 31.0625 16.5625 C31.701875 17.696875 32.34125 18.83125 33 20 C37.09722255 27.17266861 41.31030454 34.19736482 46 41 C50.47775199 33.83083325 54.82163561 26.61997996 58.98266602 19.26245117 C68.50891446 2.49108554 68.50891446 2.49108554 71 0 C77.6 0 84.2 0 91 0 C91 29.37 91 58.74 91 89 C84.4 89 77.8 89 71 89 C70.67 72.5 70.34 56 70 39 C68.02 42.63 66.04 46.26 64 50 C62.62618319 52.30493258 61.2341348 54.59924929 59.8125 56.875 C57.03709216 61.32861292 57.03709216 61.32861292 54.32421875 65.8203125 C53 68 53 68 52 69 C49.64686445 69.07271741 47.29166332 69.08370868 44.9375 69.0625 C43.00197266 69.04896484 43.00197266 69.04896484 41.02734375 69.03515625 C40.02832031 69.02355469 39.02929688 69.01195312 38 69 C37.6596875 68.35675781 37.319375 67.71351563 36.96875 67.05078125 C33.48738017 60.56024867 29.75556202 54.27263793 25.83203125 48.04296875 C24.06923802 45.11500302 22.52842555 42.0568511 21 39 C20.67 55.5 20.34 72 20 89 C13.4 89 6.8 89 0 89 C0 59.63 0 30.26 0 0 Z " fill="#FFFFFF" transform="translate(221,162)"/>
<path d="M0 0 C10.56386181 10.27042121 14.54294973 21.56039757 15.25 36.1875 C14.61192909 48.85586612 11.21507414 59.98290098 2.25 69.1875 C-11.5175345 80.72122923 -25.30216815 82.5875959 -42.75 81.1875 C-54.41023321 79.27890661 -63.73054527 72.63695317 -70.625 63.25 C-75.17057771 56.2493815 -78.39739985 49.6499036 -78.75 41.1875 C-78.78996094 40.3315625 -78.82992187 39.475625 -78.87109375 38.59375 C-79.15560739 26.67764912 -76.04916457 17.81915722 -70.75 7.1875 C-70.09 7.1875 -69.43 7.1875 -68.75 7.1875 C-68.49089844 6.59839844 -68.23179687 6.00929687 -67.96484375 5.40234375 C-63.44929023 -2.83019273 -53.81643502 -7.02056843 -45.2109375 -9.5625 C-28.60486995 -13.35817258 -13.9703999 -9.20776357 0 0 Z M-46.75 13.1875 C-46.75 13.8475 -46.75 14.5075 -46.75 15.1875 C-47.35457031 15.43757813 -47.95914063 15.68765625 -48.58203125 15.9453125 C-51.07786487 17.37535771 -51.97224043 18.61269693 -53.4375 21.0625 C-53.85386719 21.74054688 -54.27023438 22.41859375 -54.69921875 23.1171875 C-57.9437496 29.50975758 -57.90877414 38.0747524 -55.99609375 44.86328125 C-53.07250484 51.6849887 -49.31402909 56.52679147 -42.75 60.1875 C-35.24252784 62.81511526 -27.94469575 62.83775444 -20.5625 59.625 C-14.56558697 56.29203008 -9.71460954 50.78231606 -7.75 44.1875 C-7.39847042 41.26678929 -7.3222134 38.37762381 -7.3125 35.4375 C-7.30863281 34.63779785 -7.30476563 33.8380957 -7.30078125 33.01416016 C-7.42332016 26.74808217 -8.706749 22.12604229 -12.75 17.1875 C-13.41 17.1875 -14.07 17.1875 -14.75 17.1875 C-14.75 16.5275 -14.75 15.8675 -14.75 15.1875 C-16.14077301 14.36636823 -17.53788893 13.55597505 -18.9375 12.75 C-20.10345703 12.07130859 -20.10345703 12.07130859 -21.29296875 11.37890625 C-30.15873384 7.07992636 -38.13750964 9.69889631 -46.75 13.1875 Z " fill="#FFFFFF" transform="translate(196.75,170.8125)"/>
<path d="M0 0 C0.53625 0.45117188 1.0725 0.90234375 1.625 1.3671875 C1.625 2.0271875 1.625 2.6871875 1.625 3.3671875 C2.223125 3.62371094 2.82125 3.88023437 3.4375 4.14453125 C9.72570391 7.65918808 13.44053884 15.76154418 15.625 22.3671875 C19.52280802 37.36848107 17.32853483 51.95174776 9.546875 65.203125 C8.64395146 66.63836914 7.64238429 68.01067511 6.625 69.3671875 C5.965 69.3671875 5.305 69.3671875 4.625 69.3671875 C4.625 70.0271875 4.625 70.6871875 4.625 71.3671875 C-9.05240007 82.96014038 -23.01790312 84.78581137 -40.375 83.3671875 C-49.03910809 81.89719906 -57.28698344 77.76121548 -63.375 71.3671875 C-63.375 70.7071875 -63.375 70.0471875 -63.375 69.3671875 C-64.035 69.3671875 -64.695 69.3671875 -65.375 69.3671875 C-71.78199465 61.74805872 -75.88486425 52.33328113 -76.375 42.3671875 C-76.41367187 41.66207031 -76.45234375 40.95695312 -76.4921875 40.23046875 C-76.90024435 27.24065895 -72.90883987 15.51403222 -64.5078125 5.625 C-47.68923848 -12.17927799 -19.99445355 -12.69384715 0 0 Z M-49.375 20.3671875 C-54.01319659 27.81085863 -55.14878137 34.65419731 -54.375 43.3671875 C-52.43694016 50.65750586 -49.44563051 56.33941263 -43.0625 60.5546875 C-35.83319121 64.31453943 -29.32276846 65.14074811 -21.375 63.3671875 C-18.17969228 61.96549407 -15.27258908 60.3060681 -12.375 58.3671875 C-12.375 57.7071875 -12.375 57.0471875 -12.375 56.3671875 C-11.715 56.3671875 -11.055 56.3671875 -10.375 56.3671875 C-4.9254852 48.22307867 -3.44685206 40.79638741 -5.0625 31.1171875 C-6.10050042 26.63588914 -7.87058831 23.20728543 -10.375 19.3671875 C-11.035 19.3671875 -11.695 19.3671875 -12.375 19.3671875 C-12.375 18.7071875 -12.375 18.0471875 -12.375 17.3671875 C-24.89960031 9.85242732 -38.99569103 8.28944615 -49.375 20.3671875 Z " fill="#FFFFFF" transform="translate(469.375,168.6328125)"/>
<path d="M0 0 C45.76266667 0 45.76266667 0 55 8 C56.69599121 10.27606937 57.77692934 12.4070902 59 15 C59.495 15.99 59.495 15.99 60 17 C60.14977039 19.24655587 60.22150174 21.49863768 60.25 23.75 C60.27578125 24.96171875 60.3015625 26.1734375 60.328125 27.421875 C59.72875187 33.95789629 56.72502004 37.65808969 52 42 C52.81404297 42.61875 52.81404297 42.61875 53.64453125 43.25 C59.67059601 48.1142829 62.39460344 51.89627709 63.30859375 59.6015625 C63.66540537 67.27841865 62.19091503 73.90747507 57.41015625 80.0390625 C43.00924123 94.34863979 16.7806536 89 0 89 C0 59.63 0 30.26 0 0 Z M21 19 C21 23.95 21 28.9 21 34 C23.2275 34.061875 25.455 34.12375 27.75 34.1875 C29.00296875 34.22230469 30.2559375 34.25710937 31.546875 34.29296875 C35.1713411 33.98546314 36.51079705 33.58610623 39 31 C40.20362584 27.30888074 40.34418291 25.70401049 38.625 22.1875 C37.18059279 20.13193917 37.18059279 20.13193917 36 19 C33.4672235 18.92679837 30.96896082 18.90772431 28.4375 18.9375 C25.983125 18.958125 23.52875 18.97875 21 19 Z M21 53 C21 58.61 21 64.22 21 70 C24.83625 70.0928125 24.83625 70.0928125 28.75 70.1875 C29.54889648 70.21481201 30.34779297 70.24212402 31.17089844 70.27026367 C34.3428561 70.30741632 36.63540093 70.19271665 39.4609375 68.69921875 C41.90244996 66.00364027 41.87743987 63.55424373 42 60 C40.9648201 56.11807539 40.41625138 55.27750092 37 53 C34.22503673 52.85710797 31.58047807 52.81262458 28.8125 52.875 C26.234375 52.91625 23.65625 52.9575 21 53 Z " fill="#FFFFFF" transform="translate(325,162)"/>
<path d="M0 0 C0.85013672 -0.00386719 1.70027344 -0.00773438 2.57617188 -0.01171875 C3.39794922 -0.01042969 4.21972656 -0.00914062 5.06640625 -0.0078125 C6.1812439 -0.00612061 6.1812439 -0.00612061 7.31860352 -0.00439453 C9.4375 0.125 9.4375 0.125 13.4375 1.125 C13.4375 7.395 13.4375 13.665 13.4375 20.125 C9.2609375 20.0321875 9.2609375 20.0321875 5 19.9375 C-1.718314 19.87439184 -7.39503721 20.22516084 -13.5625 23.125 C-14.573125 23.516875 -15.58375 23.90875 -16.625 24.3125 C-17.264375 24.580625 -17.90375 24.84875 -18.5625 25.125 C-18.5625 25.785 -18.5625 26.445 -18.5625 27.125 C-19.18125 27.723125 -19.8 28.32125 -20.4375 28.9375 C-25.10878767 33.74617848 -24.92762259 39.09126573 -24.9375 45.4375 C-24.96199219 46.25412109 -24.98648438 47.07074219 -25.01171875 47.91210938 C-25.03954698 53.73284794 -23.94481824 58.30304838 -20.5625 63.125 C-19.9025 63.455 -19.2425 63.785 -18.5625 64.125 C-18.5625 64.785 -18.5625 65.445 -18.5625 66.125 C-16.91543725 66.83872719 -15.24048788 67.48736461 -13.5625 68.125 C-12.91539063 68.38925781 -12.26828125 68.65351563 -11.6015625 68.92578125 C-3.28105856 71.92173062 4.68886495 71.33330083 13.4375 71.125 C13.4375 77.395 13.4375 83.665 13.4375 90.125 C-3.17427178 93.44735436 -19.0323884 90.63297964 -33.25 81.375 C-42.86108143 72.02367753 -47.47781891 61.46318773 -48.5625 48.125 C-48.5625 35.47373641 -45.57490211 24.10671539 -37.5625 14.125 C-36.9025 14.125 -36.2425 14.125 -35.5625 14.125 C-35.5625 13.465 -35.5625 12.805 -35.5625 12.125 C-25.2385067 3.03271956 -13.40025513 -0.06123498 0 0 Z " fill="#FFFFFF" transform="translate(98.5625,160.875)"/>
<path d="M0 0 C5.28 0 10.56 0 16 0 C16 9.24 16 18.48 16 28 C25.24 28 34.48 28 44 28 C44 32.95 44 37.9 44 43 C34.76 43 25.52 43 16 43 C16 52.24 16 61.48 16 71 C10.72 71 5.44 71 0 71 C0 61.76 0 52.52 0 43 C-9.24 43 -18.48 43 -28 43 C-28 38.05 -28 33.1 -28 28 C-18.76 28 -9.52 28 0 28 C0 18.76 0 9.52 0 0 Z " fill="#FFFFFF" transform="translate(531,171)"/>
<path d="M0 0 C6.56596955 5.46372285 13.00773238 12.34433797 14.03515625 21.11328125 C14.1214817 27.76034124 13.96629694 32.01892296 9.69921875 37.24609375 C1.97986368 43.87565752 -7.89023764 45.6265811 -17.79296875 45.44921875 C-20.35867339 45.24140467 -22.78977721 44.80409465 -25.30078125 44.24609375 C-25.63078125 45.23609375 -25.96078125 46.22609375 -26.30078125 47.24609375 C-28.28078125 47.24609375 -30.26078125 47.24609375 -32.30078125 47.24609375 C-32.63078125 44.93609375 -32.96078125 42.62609375 -33.30078125 40.24609375 C-34.56921875 39.90578125 -34.56921875 39.90578125 -35.86328125 39.55859375 C-42.42493626 37.05323457 -47.32971444 33.02219092 -51.30078125 27.24609375 C-51.92578125 24.62109375 -51.92578125 24.62109375 -51.30078125 22.24609375 C-47.86050471 18.70156641 -43.92764563 16.86955494 -39.30078125 15.24609375 C-37.32078125 15.24609375 -35.34078125 15.24609375 -33.30078125 15.24609375 C-32.97078125 10.62609375 -32.64078125 6.00609375 -32.30078125 1.24609375 C-30.98078125 1.24609375 -29.66078125 1.24609375 -28.30078125 1.24609375 C-26.08223418 5.86806681 -24.91796966 9.01433538 -25.30078125 14.24609375 C-24.37458984 14.19388672 -24.37458984 14.19388672 -23.4296875 14.140625 C-16.4368879 13.91711086 -9.76212589 14.39557463 -4.17578125 18.99609375 C-2.87552097 22.33962017 -3.46071955 24.82122682 -4.30078125 28.24609375 C-7.0095746 29.60049043 -9.31011393 29.31110826 -12.30078125 29.24609375 C-12.30078125 28.25609375 -12.30078125 27.26609375 -12.30078125 26.24609375 C-11.64078125 25.91609375 -10.98078125 25.58609375 -10.30078125 25.24609375 C-13.50088513 23.43270155 -16.43361968 22.72395401 -20.05078125 22.12109375 C-22.64953125 21.68796875 -22.64953125 21.68796875 -25.30078125 21.24609375 C-25.30078125 26.52609375 -25.30078125 31.80609375 -25.30078125 37.24609375 C-15.24221532 37.54193392 -7.19961794 37.37608873 1.76171875 32.62109375 C4.64836026 29.08262997 4.98026279 25.74279845 4.69921875 21.24609375 C3.97918118 18.63148922 2.98740645 16.67933717 1.69921875 14.24609375 C1.11140625 13.03953125 1.11140625 13.03953125 0.51171875 11.80859375 C0.24359375 11.29296875 -0.02453125 10.77734375 -0.30078125 10.24609375 C-0.96078125 10.24609375 -1.62078125 10.24609375 -2.30078125 10.24609375 C-2.96078125 9.54484375 -3.62078125 8.84359375 -4.30078125 8.12109375 C-13.77902357 -1.63267887 -29.93600411 -7.61553254 -43.41015625 -7.8671875 C-47.37564886 -7.89643863 -51.3362729 -7.84146594 -55.30078125 -7.75390625 C-55.30078125 -6.76390625 -55.30078125 -5.77390625 -55.30078125 -4.75390625 C-57.61078125 -5.08390625 -59.92078125 -5.41390625 -62.30078125 -5.75390625 C-61.79661954 -9.48470292 -61.25418981 -11.38063151 -58.30078125 -13.75390625 C-38.56499894 -20.30913057 -16.19585154 -11.33488655 0 0 Z M-40.80078125 22.12109375 C-41.78046875 22.28351563 -42.76015625 22.4459375 -43.76953125 22.61328125 C-46.45061921 23.05293454 -46.45061921 23.05293454 -48.30078125 25.24609375 C-44.01435682 30.24692225 -39.2543848 32.46774543 -33.30078125 35.24609375 C-33.30078125 30.62609375 -33.30078125 26.00609375 -33.30078125 21.24609375 C-35.87161452 21.24609375 -38.26637013 21.68757606 -40.80078125 22.12109375 Z " fill="#FFFFFF" transform="translate(147.30078125,59.75390625)"/>
<path d="M0 0 C1.66289062 0.50853516 1.66289062 0.50853516 3.359375 1.02734375 C27.09324837 9.16053694 46.23435388 27.57802724 57.29296875 49.8515625 C58.10955699 52.33290798 58.13206387 54.40426182 58 57 C55.6875 57.3125 55.6875 57.3125 53 57 C51.546875 54.85546875 51.546875 54.85546875 50 52 C49.44441406 51.030625 48.88882813 50.06125 48.31640625 49.0625 C47.14777806 47.02195545 45.98110816 44.98028813 44.81640625 42.9375 C43.05189377 39.94644612 43.05189377 39.94644612 40.77734375 37.25 C39 35 39 35 39 33 C38.34 33 37.68 33 37 33 C36.0396716 31.91203302 35.13303492 30.77658678 34.25 29.625 C21.62023465 14.85105088 0.96855824 5.40193578 -18 3 C-44.51102931 1.47570844 -66.9752388 6.59097152 -88.015625 23.453125 C-90.23449743 25.18279721 -92.53359418 26.64745487 -95 28 C-95 27.01 -95 26.02 -95 25 C-95.66 25 -96.32 25 -97 25 C-96.67 23.68 -96.34 22.36 -96 21 C-95.34 21 -94.68 21 -94 21 C-94 20.34 -94 19.68 -94 19 C-91.99433006 17.33267256 -90.00177563 15.81247178 -87.875 14.3125 C-87.24480957 13.86696777 -86.61461914 13.42143555 -85.96533203 12.96240234 C-60.83931262 -4.3854754 -29.16667977 -9.40159997 0 0 Z " fill="#0093F7" transform="translate(234,4)"/>
<path d="M0 0 C21 0 21 0 29 4 C30.93983843 7.87967686 31.27281407 9.34784014 31.25 13.5 C31.25515625 14.4384375 31.2603125 15.376875 31.265625 16.34375 C30.98776602 19.12233985 30.5543181 20.6935925 29 23 C26.78022342 24.62716654 24.45605722 25.72648885 22 27 C22.3609375 27.48210937 22.721875 27.96421875 23.09375 28.4609375 C23.5578125 29.09257813 24.021875 29.72421875 24.5 30.375 C24.9640625 31.00148438 25.428125 31.62796875 25.90625 32.2734375 C27 34 27 34 27 36 C27.66 36 28.32 36 29 36 C33 41.41176471 33 41.41176471 33 44 C28.71954046 44.92669743 25.24611804 45.18334437 21 44 C16.69280263 40.18133163 13.84627017 34.93689339 11 30 C10.67 34.62 10.34 39.24 10 44 C6.7 44 3.4 44 0 44 C0 29.48 0 14.96 0 0 Z M10 10 C10 12.97 10 15.94 10 19 C14.455 18.505 14.455 18.505 19 18 C20.19838209 15.67145537 20.19838209 15.67145537 21 13 C20.34 12.01 19.68 11.02 19 10 C15.96133201 9.58862798 13.07840297 9.86806844 10 10 Z " fill="#FFFFFF" transform="translate(461,61)"/>
<path d="M0 0 C0.66 0 1.32 0 2 0 C3.00465729 3.12352227 4.00292927 6.24904853 5 9.375 C5.28617187 10.26445313 5.57234375 11.15390625 5.8671875 12.0703125 C6.13789063 12.92109375 6.40859375 13.771875 6.6875 14.6484375 C6.93886719 15.43395996 7.19023437 16.21948242 7.44921875 17.02880859 C8 19 8 19 8 21 C15.26 20.67 22.52 20.34 30 20 C29.505 21.485 29.505 21.485 29 23 C26.4375 24.1875 26.4375 24.1875 24 25 C24 25.66 24 26.32 24 27 C22.02866014 28.37535339 20.02318078 29.70211044 18 31 C16.32346641 32.32090525 14.65505099 33.65227534 13 35 C13.433125 36.19238281 13.86625 37.38476562 14.3125 38.61328125 C14.87524861 40.1795982 15.43773498 41.74600939 16 43.3125 C16.28617187 44.09818359 16.57234375 44.88386719 16.8671875 45.69335938 C17.13789063 46.45068359 17.40859375 47.20800781 17.6875 47.98828125 C17.93886719 48.68477783 18.19023437 49.38127441 18.44921875 50.09887695 C19 52 19 52 19 55 C13.37004263 53.13714646 9.43935194 49.44701207 4.9375 45.703125 C2.19786067 43.69066183 2.19786067 43.69066183 -0.44921875 44.4453125 C-3.65193778 46.39735258 -6.76052365 48.4474472 -9.8125 50.625 C-10.40998047 51.04523438 -11.00746094 51.46546875 -11.62304688 51.8984375 C-13.08520565 52.92779728 -14.54304899 53.9632823 -16 55 C-17 52 -17 52 -15.75 48.5 C-13.37931034 43.75862069 -13.37931034 43.75862069 -11 42 C-10.34 42 -9.68 42 -9 42 C-8.731875 41.360625 -8.46375 40.72125 -8.1875 40.0625 C-7 38 -7 38 -4 37 C-4 36.34 -4 35.68 -4 35 C-3.34 35 -2.68 35 -2 35 C-2 34.34 -2 33.68 -2 33 C0 31.375 0 31.375 2 30 C-2.15570403 31.30172691 -2.15570403 31.30172691 -6.0625 33.1875 C-8.86179711 34.36139879 -10.07762223 33.90776857 -13 33 C-15.7369627 31.36092125 -18.26584758 29.48040953 -20.8125 27.5625 C-21.50537109 27.05912109 -22.19824219 26.55574219 -22.91210938 26.03710938 C-26.68100384 23.2410724 -26.68100384 23.2410724 -28 22 C-28 21.34 -28 20.68 -28 20 C-21.07 20 -14.14 20 -7 20 C-4.27021145 13.41085523 -1.92830011 6.86591706 0 0 Z " fill="#EF4740" transform="translate(429,54)"/>
<path d="M0 0 C3.81677719 0.79848895 5.4696578 1.96358936 8 5 C10.20383116 9.1756801 10.52854991 13.3640741 11 18 C11.12375 17.360625 11.2475 16.72125 11.375 16.0625 C11.58125 15.381875 11.7875 14.70125 12 14 C12.66 13.67 13.32 13.34 14 13 C14.22609337 10.87635519 14.22609337 10.87635519 12.5 9.375 C12.005 8.92125 11.51 8.4675 11 8 C11.33 7.01 11.66 6.02 12 5 C16.26131536 4.20060045 20.35244681 3.81041886 24.6875 3.75 C25.80511719 3.72421875 26.92273438 3.6984375 28.07421875 3.671875 C31 4 31 4 32.95703125 5.265625 C33.30121094 5.83796875 33.64539063 6.4103125 34 7 C33.67 8.32 33.34 9.64 33 11 C29.7 11.33 26.4 11.66 23 12 C24.98 12.66 26.96 13.32 29 14 C29 15.65 29 17.3 29 19 C28.06027344 19.05607422 28.06027344 19.05607422 27.1015625 19.11328125 C26.28429687 19.17902344 25.46703125 19.24476562 24.625 19.3125 C23.81289062 19.37050781 23.00078125 19.42851563 22.1640625 19.48828125 C19.62078662 19.82990528 19.62078662 19.82990528 18 23 C18.99 22.67 19.98 22.34 21 22 C22.39439664 21.93334624 23.79169875 21.91461801 25.1875 21.9375 C27.0746875 21.9684375 27.0746875 21.9684375 29 22 C29.66 23.32 30.32 24.64 31 26 C27.10231018 29.5322814 23.16466532 31.93668655 18 33 C14.2542791 32.36393419 12.63669412 31.72158667 10.125 28.875 C9.75375 28.25625 9.3825 27.6375 9 27 C8.34 27.66 7.68 28.32 7 29 C4.6875 29.5 4.6875 29.5 2 29 C-1.02173814 25.90798888 -3.15364305 22.87819269 -5 19 C-5.04898438 19.61488281 -5.09796875 20.22976562 -5.1484375 20.86328125 C-5.22320312 21.67152344 -5.29796875 22.47976562 -5.375 23.3125 C-5.44460937 24.11300781 -5.51421875 24.91351563 -5.5859375 25.73828125 C-6 28 -6 28 -8 31 C-11.875 30.125 -11.875 30.125 -13 29 C-13.52601867 20.97821528 -13.90265615 13.22714103 -10 6 C-9.01 5.67 -8.02 5.34 -7 5 C-2.99027798 8.67557852 -0.54664585 12.18966896 2 17 C1.855625 15.865625 1.71125 14.73125 1.5625 13.5625 C0.99698633 9.04646944 0.49225191 4.52452819 0 0 Z " fill="#FFFFFF" transform="translate(212,69)"/>
<path d="M0 0 C2.64530193 2.01093696 4.0148771 3.62175898 5.00390625 6.80078125 C5.04515625 7.52265625 5.08640625 8.24453125 5.12890625 8.98828125 C-0.49609375 11.98828125 -0.49609375 11.98828125 -3.87109375 11.98828125 C-4.55171875 11.21484375 -4.55171875 11.21484375 -5.24609375 10.42578125 C-5.78234375 9.95140625 -6.31859375 9.47703125 -6.87109375 8.98828125 C-9.52575424 9.21871989 -9.52575424 9.21871989 -11.87109375 9.98828125 C-11.15047245 13.24069754 -11.15047245 13.24069754 -8.03515625 14.671875 C-5.68099873 15.83856013 -3.32683211 17.00522688 -0.97265625 18.171875 C3.13693824 20.57862744 4.6400538 22.52172391 6.12890625 26.98828125 C6.50078987 32.00871018 6.26613077 34.98561549 3.12890625 38.98828125 C-0.45572645 42.7837747 -3.55181199 43.67978366 -8.59765625 44.0234375 C-14.46993141 43.93262912 -18.69799557 42.04214805 -22.87109375 37.98828125 C-24.57914649 35.30419837 -24.87109375 34.22658592 -24.87109375 30.98828125 C-20.79717463 29.37766206 -18.08169629 28.50888036 -13.87109375 29.98828125 C-13.37609375 30.52453125 -12.88109375 31.06078125 -12.37109375 31.61328125 C-11.87609375 32.06703125 -11.38109375 32.52078125 -10.87109375 32.98828125 C-8.21643326 32.75784261 -8.21643326 32.75784261 -5.87109375 31.98828125 C-5.87109375 30.66828125 -5.87109375 29.34828125 -5.87109375 27.98828125 C-6.763125 27.54097656 -7.65515625 27.09367187 -8.57421875 26.6328125 C-9.7446875 26.02824219 -10.91515625 25.42367187 -12.12109375 24.80078125 C-13.28125 24.20910156 -14.44140625 23.61742188 -15.63671875 23.0078125 C-18.95479515 20.93601842 -20.80017532 19.28771061 -22.87109375 15.98828125 C-23.79693966 11.95925527 -23.74091393 7.8703258 -21.98828125 4.078125 C-16.98710908 -2.66186531 -7.20712935 -3.89696555 0 0 Z " fill="#FFFFFF" transform="translate(367.87109375,62.01171875)"/>
<path d="M0 0 C1.80994949 0.00636726 1.80994949 0.00636726 3.65646362 0.01286316 C7.47694043 0.0295372 11.2968725 0.06716925 15.1171875 0.10546875 C17.7213465 0.12053012 20.32551384 0.13421597 22.9296875 0.14648438 C29.28403725 0.17940378 35.63807344 0.22948998 41.9921875 0.29296875 C41.9921875 1.61296875 41.9921875 2.93296875 41.9921875 4.29296875 C40.90343826 4.29843719 40.90343826 4.29843719 39.79269409 4.30401611 C32.93659306 4.34195697 26.08088091 4.3988787 19.22512627 4.47687149 C15.70084709 4.51630178 12.17681609 4.54851157 8.65234375 4.56396484 C4.59594998 4.58207201 0.54048262 4.63204197 -3.515625 4.68359375 C-4.77521027 4.68482239 -6.03479553 4.68605103 -7.33255005 4.68731689 C-15.97426238 4.80637537 -15.97426238 4.80637537 -23.0078125 9.29296875 C-28.5565461 15.30409681 -29.3056009 20.43920887 -29.2824707 28.30249023 C-29.28758163 29.20066467 -29.29269257 30.09883911 -29.29795837 31.02423096 C-29.31183658 33.98757628 -29.31089898 36.95068858 -29.30859375 39.9140625 C-29.31248154 41.97762641 -29.31681638 44.04118951 -29.32157898 46.10475159 C-29.3290373 50.42801509 -29.32875262 54.75119692 -29.32348633 59.07446289 C-29.31769104 64.61049135 -29.33462615 70.14618531 -29.357831 75.68215847 C-29.37257298 79.94328257 -29.37343942 84.20432619 -29.37032127 88.46547127 C-29.37083421 90.50638555 -29.37606677 92.54730437 -29.38613319 94.58819389 C-29.39848965 97.44370045 -29.39171063 100.29855635 -29.38012695 103.15405273 C-29.38777069 103.99424454 -29.39541443 104.83443634 -29.40328979 105.7000885 C-29.35906017 110.64078801 -28.72154638 114.00246802 -26.0078125 118.29296875 C-20.24306586 123.75430768 -14.81623067 124.61134338 -7.1953125 124.91796875 C-6.40705078 124.95664063 -5.61878906 124.9953125 -4.80664062 125.03515625 C-2.8740587 125.12885719 -0.94096874 125.21197654 0.9921875 125.29296875 C0.9921875 126.28296875 0.9921875 127.27296875 0.9921875 128.29296875 C-2.00880838 128.40187586 -5.00577628 128.4807043 -8.0078125 128.54296875 C-8.84699219 128.57648438 -9.68617187 128.61 -10.55078125 128.64453125 C-16.58257589 128.73804745 -20.99885356 127.74655318 -26.0078125 124.29296875 C-28.06640625 122.2578125 -28.06640625 122.2578125 -29.4453125 120.23046875 C-30.15494141 119.22306641 -30.15494141 119.22306641 -30.87890625 118.1953125 C-33.48982714 113.79559459 -33.16248274 109.39692437 -33.16894531 104.45043945 C-33.17391022 103.54601608 -33.17887512 102.64159271 -33.18399048 101.70976257 C-33.19861407 98.71275067 -33.20541539 95.71579175 -33.2109375 92.71875 C-33.21668997 90.63469949 -33.22244769 88.55064899 -33.22821045 86.46659851 C-33.23872181 82.09272007 -33.24456321 77.71886 -33.24804688 73.3449707 C-33.25352369 67.7508127 -33.27753386 62.15689907 -33.30601883 56.56281757 C-33.32468132 52.25529786 -33.3298528 47.94783649 -33.33138275 43.64027977 C-33.334403 41.57868302 -33.34241028 39.51708714 -33.35556793 37.45553017 C-33.37269939 34.56432388 -33.37073051 31.67370771 -33.36425781 28.7824707 C-33.3734726 27.93697662 -33.38268738 27.09148254 -33.3921814 26.22036743 C-33.34184264 19.01104748 -31.70508596 12.62904511 -26.9453125 6.98046875 C-26.43871094 6.34496094 -25.93210937 5.70945312 -25.41015625 5.0546875 C-18.02575096 -0.36054305 -8.77066124 -0.11794194 0 0 Z " fill="#54D9EF" transform="translate(33.0078125,79.70703125)"/>
<path d="M0 0 C9.9 0 19.8 0 30 0 C30 3.3 30 6.6 30 10 C27.03 10 24.06 10 21 10 C21.00785522 11.49164673 21.00785522 11.49164673 21.01586914 13.01342773 C21.03392041 16.69033921 21.04543246 20.36724675 21.05493164 24.04418945 C21.05997157 25.63794614 21.0668035 27.23169819 21.07543945 28.82543945 C21.08751999 31.11150253 21.09323155 33.39750467 21.09765625 35.68359375 C21.10281754 36.40026718 21.10797882 37.11694061 21.11329651 37.85533142 C21.11349263 39.57063672 21.06192007 41.28581266 21 43 C20.67 43.33 20.34 43.66 20 44 C16.37 44 12.74 44 9 44 C9 32.78 9 21.56 9 10 C6.03 10 3.06 10 0 10 C0 6.7 0 3.4 0 0 Z " fill="#FFFFFF" transform="translate(376,61)"/>
<path d="M0 0 C0.99 0 1.98 0 3 0 C3.5497272 5.63470383 1.95047835 8.38987758 -1 13 C-0.46890625 12.37351562 0.0621875 11.74703125 0.609375 11.1015625 C1.31578125 10.28429687 2.0221875 9.46703125 2.75 8.625 C3.44609375 7.81289062 4.1421875 7.00078125 4.859375 6.1640625 C6.88353749 4.11773765 8.32912029 3.00226826 11 2 C13.5625 2 13.5625 2 16 3 C18.22073618 5.79382938 19.04403506 7.81871158 18.91015625 11.41015625 C17.78289516 18.52800488 15.38793223 22.48076834 9.5625 26.8125 C6.70169483 28.13823898 4.10502098 28.5344604 1 29 C-1.28953836 35.98575424 -3.42351925 42.64987044 -4 50 C-7.13774082 49.74558858 -8.62157184 49.37842816 -10.875 47.125 C-12.98833716 41.25461899 -11.98357924 35.16387434 -9.4375 29.5625 C-7.95309996 25.88376948 -7.88892287 23.89735833 -8 20 C-8.19486884 11.76422727 -5.09957986 6.24698533 0 0 Z M12 9 C10.18759253 11.01608167 10.18759253 11.01608167 8.375 13.5 C7.74335938 14.3353125 7.11171875 15.170625 6.4609375 16.03125 C5.73777344 17.00578125 5.73777344 17.00578125 5 18 C5.33 18.66 5.66 19.32 6 20 C10.57748509 17.1204024 10.57748509 17.1204024 14 13 C14 11.68 14 10.36 14 9 C13.34 9 12.68 9 12 9 Z " fill="#FFFFFF" transform="translate(252,72)"/>
<path d="M0 0 C7.11666802 -0.05088279 14.23328876 -0.08581026 21.35009766 -0.10986328 C23.7690608 -0.1198951 26.1880119 -0.13352371 28.60693359 -0.15087891 C32.09215273 -0.17525107 35.57721093 -0.18651158 39.0625 -0.1953125 C40.13677246 -0.20563507 41.21104492 -0.21595764 42.31787109 -0.22659302 C57.27251968 -0.22880682 57.27251968 -0.22880682 62.75 4.625 C63.28109375 5.07101563 63.8121875 5.51703125 64.359375 5.9765625 C69.40296468 12.19698977 70.58940505 18.02572408 70.51757812 25.88500977 C70.5245874 26.84053741 70.53159668 27.79606506 70.53881836 28.7805481 C70.55632671 31.91780233 70.54480174 35.05414393 70.53125 38.19140625 C70.53394674 40.38280916 70.53783068 42.57421091 70.54284668 44.76560974 C70.54873185 49.34930865 70.54020932 53.93269495 70.52148438 58.51635742 C70.49868224 64.3830198 70.51183259 70.24895064 70.53577423 76.11558628 C70.55024703 80.63756292 70.54561958 85.15936688 70.53526306 89.6813488 C70.53260059 91.84423853 70.5358486 94.0071441 70.54518127 96.17001534 C70.55537251 99.19522612 70.5398097 102.21926125 70.51757812 105.24438477 C70.52567505 106.13237259 70.53377197 107.02036041 70.54211426 107.93525696 C70.46281164 113.77830241 69.36018009 117.18928474 66 122 C63.96484375 123.7421875 63.96484375 123.7421875 61.9375 124.875 C60.93009766 125.45894531 60.93009766 125.45894531 59.90234375 126.0546875 C55.76216133 128.11202661 52.38099371 128.10441279 47.8125 128.0625 C46.54019531 128.05347656 45.26789062 128.04445312 43.95703125 128.03515625 C42.49330078 128.01775391 42.49330078 128.01775391 41 128 C41 127.01 41 126.02 41 125 C41.78503906 124.96261719 42.57007813 124.92523438 43.37890625 124.88671875 C51.18474216 124.3982554 56.58018729 123.73585017 62.8125 118.75 C67.1518497 113.29481753 67.29633441 107.14786871 67.2746582 100.46948242 C67.2823246 99.23383293 67.2823246 99.23383293 67.29014587 97.97322083 C67.30397301 95.26722822 67.30309003 92.56149235 67.30078125 89.85546875 C67.30467249 87.9612875 67.30900804 86.06710712 67.31376648 84.17292786 C67.32121432 80.20794849 67.32094823 76.24305819 67.31567383 72.27807617 C67.30988693 67.21779209 67.32679838 62.15787496 67.3500185 57.09765148 C67.36481174 53.18636472 67.36561985 49.27516514 67.36250877 45.36385536 C67.36301937 43.4992939 67.36820752 41.63472721 67.37832069 39.7701931 C67.85700665 23.77632992 67.85700665 23.77632992 61.5625 9.5 C57.63383574 5.66715682 54.95549777 4.75626832 49.49707031 4.68115234 C48.39623108 4.66128265 47.29539185 4.64141296 46.16119385 4.62094116 C44.97878113 4.60938995 43.79636841 4.59783875 42.578125 4.5859375 C41.36300232 4.56657135 40.14787964 4.5472052 38.89593506 4.5272522 C35.01402816 4.46746194 31.1320916 4.42107254 27.25 4.375 C24.61847663 4.33681978 21.98696576 4.29776802 19.35546875 4.2578125 C12.90375669 4.16176071 6.45196943 4.07671135 0 4 C0 2.68 0 1.36 0 0 Z " fill="#FA1660" transform="translate(550,80)"/>
<path d="M0 0 C-0.875 3.875 -0.875 3.875 -2 5 C-5.10042773 5.32446337 -8.2020725 5.51334441 -11.3125 5.71875 C-13.91596752 5.70607799 -13.91596752 5.70607799 -15 7 C-13.96939453 7.16435547 -13.96939453 7.16435547 -12.91796875 7.33203125 C-12.01691406 7.49058594 -11.11585938 7.64914063 -10.1875 7.8125 C-9.29417969 7.96332031 -8.40085938 8.11414063 -7.48046875 8.26953125 C-4.75773564 9.07134399 -3.69125399 9.75036374 -2 12 C-1.00518818 15.83713132 -0.64019765 18.10049414 -2.125 21.8125 C-5.33698497 25.5598158 -8.02907145 25.92169931 -12.875 26.3125 C-18.04270181 26.16596781 -22.16070617 24.72433797 -26 21.125 C-27.31175151 18.33752804 -26.91367912 16.89331721 -26 14 C-25.67 13.34 -25.34 12.68 -25 12 C-25.99 11.34 -26.98 10.68 -28 10 C-28.5 7.125 -28.5 7.125 -28 4 C-21.3461953 -3.726999 -8.88619695 -2.96206565 0 0 Z M-9 14 C-8.34 14.66 -7.68 15.32 -7 16 C-7 15.34 -7 14.68 -7 14 C-7.66 14 -8.32 14 -9 14 Z M-23 16 C-23.33 16.66 -23.66 17.32 -24 18 C-21.24921116 18.91692961 -19.64051087 19.10886083 -16.8125 19.0625 C-15.554375 19.041875 -14.29625 19.02125 -13 19 C-13 18.67 -13 18.34 -13 18 C-16.3 17.34 -19.6 16.68 -23 16 Z " fill="#FFFFFF" transform="translate(199,74)"/>
<path d="M0 0 C2.97 0 5.94 0 9 0 C9 4.29 9 8.58 9 13 C13.29 13 17.58 13 22 13 C22 15.64 22 18.28 22 21 C17.71 21 13.42 21 9 21 C9 25.29 9 29.58 9 34 C6.03 34 3.06 34 0 34 C0 29.71 0 25.42 0 21 C-4.29 21 -8.58 21 -13 21 C-13 18.36 -13 15.72 -13 13 C-8.71 13 -4.42 13 0 13 C0 8.71 0 4.42 0 0 Z " fill="#FFFFFF" transform="translate(513,66)"/>
<path d="M0 0 C1.2065625 0.0309375 1.2065625 0.0309375 2.4375 0.0625 C3.99450564 5.6093326 4.4375 9.03456487 4.4375 15.0625 C9.3875 15.0625 14.3375 15.0625 19.4375 15.0625 C19.4375 17.0425 19.4375 19.0225 19.4375 21.0625 C14.8175 21.0625 10.1975 21.0625 5.4375 21.0625 C5.293125 23.351875 5.14875 25.64125 5 28 C4.5625 34.9375 4.5625 34.9375 3.4375 36.0625 C1.7875 36.0625 0.1375 36.0625 -1.5625 36.0625 C-1.5625 31.1125 -1.5625 26.1625 -1.5625 21.0625 C-6.1825 21.0625 -10.8025 21.0625 -15.5625 21.0625 C-15.5625 19.0825 -15.5625 17.1025 -15.5625 15.0625 C-10.9425 15.0625 -6.3225 15.0625 -1.5625 15.0625 C-1.71847656 14.06347656 -1.87445313 13.06445312 -2.03515625 12.03515625 C-2.22980469 10.74480469 -2.42445313 9.45445313 -2.625 8.125 C-2.92083984 6.19333984 -2.92083984 6.19333984 -3.22265625 4.22265625 C-3.33480469 3.17980469 -3.44695312 2.13695313 -3.5625 1.0625 C-2.5625 0.0625 -2.5625 0.0625 0 0 Z " fill="#FFFFFF" transform="translate(291.5625,64.9375)"/>
<path d="M0 0 C4.83413127 2.61357503 4.83413127 2.61357503 6.109375 5.1640625 C6.34014423 10.70252404 6.34014423 10.70252404 5.109375 13.1640625 C4.449375 13.1640625 3.789375 13.1640625 3.109375 13.1640625 C3.109375 13.8240625 3.109375 14.4840625 3.109375 15.1640625 C2.449375 15.1640625 1.789375 15.1640625 1.109375 15.1640625 C1.109375 15.8240625 1.109375 16.4840625 1.109375 17.1640625 C-5.08859178 20.81927368 -10.85280549 21.1640625 -17.890625 21.1640625 C-19.64636164 16.66498735 -20.41735417 12.99241318 -19.890625 8.1640625 C-16.18330656 1.52178362 -7.3974506 -3.27077361 0 0 Z M-4.953125 9.0390625 C-5.66597656 9.57273437 -6.37882813 10.10640625 -7.11328125 10.65625 C-9.00108934 12.05770533 -9.00108934 12.05770533 -9.890625 14.1640625 C-6.92218065 14.51744873 -4.73464282 14.7058307 -2.15625 13.05078125 C-0.68713681 11.80903082 0.71642314 10.49068332 2.109375 9.1640625 C1.779375 8.1740625 1.449375 7.1840625 1.109375 6.1640625 C-1.67076611 6.1640625 -2.7573151 7.37327568 -4.953125 9.0390625 Z " fill="#FFFFFF" transform="translate(176.890625,49.8359375)"/>
<path d="M0 0 C1.921875 0.69921875 1.921875 0.69921875 4 2 C6.8679943 9.42702297 6.22374677 18.18129344 6 26 C4.35 26.66 2.7 27.32 1 28 C-0.48046875 27.01171875 -0.48046875 27.01171875 -2 25 C-2.27427811 22.18348819 -2.37289649 19.62214479 -2.3125 16.8125 C-2.31572266 16.08224609 -2.31894531 15.35199219 -2.32226562 14.59960938 C-2.27206828 9.44753667 -1.40816992 4.95384081 0 0 Z " fill="#FFFFFF" transform="translate(165,73)"/>
<path d="M0 0 C0.8466034 1.38782485 1.67675339 2.78569397 2.5 4.1875 C2.9640625 4.96480469 3.428125 5.74210937 3.90625 6.54296875 C5.10729647 9.24103386 5.20741043 11.0806982 5 14 C2.6875 14.3125 2.6875 14.3125 0 14 C-2.78089435 10.47040332 -4.29681085 6.13631651 -6 2 C-3 0 -3 0 0 0 Z " fill="#D3FAFC" transform="translate(287,47)"/>
<path d="M0 0 C1.28006797 1.78398614 2.47660351 3.62853906 3.625 5.5 C4.25664062 6.5209375 4.88828125 7.541875 5.5390625 8.59375 C6.02117187 9.3878125 6.50328125 10.181875 7 11 C4.35261084 12.4606285 3.10551666 13 0 13 C-1.82421875 10.59375 -1.82421875 10.59375 -3.6875 7.5 C-4.62142578 5.96859375 -4.62142578 5.96859375 -5.57421875 4.40625 C-6.04472656 3.6121875 -6.51523437 2.818125 -7 2 C-2.25 0 -2.25 0 0 0 Z " fill="#32EBF6" transform="translate(280,36)"/>
<path d="M0 0 C2.47598865 1.19805902 2.96367818 2.42179364 3.9375 4.9375 C1.29011084 6.3981285 0.04301666 6.9375 -3.0625 6.9375 C-3.7225 5.6175 -4.3825 4.2975 -5.0625 2.9375 C-2.64829882 -0.08025148 -2.64829882 -0.08025148 0 0 Z " fill="#7EF2F9" transform="translate(283.0625,42.0625)"/>
<path d="M0 0 C0 1.65 0 3.3 0 5 C-2.375 5.125 -2.375 5.125 -5 5 C-5.66 4.34 -6.32 3.68 -7 3 C-7 2.01 -7 1.02 -7 0 C-3.86650268 -1.04449911 -3.01031744 -0.93423645 0 0 Z " fill="#F8FDFE" transform="translate(292,56)"/>
<path d="M0 0 C0.33 0.99 0.66 1.98 1 3 C-0.98 3.66 -2.96 4.32 -5 5 C-5.33 4.01 -5.66 3.02 -6 2 C-3 0 -3 0 0 0 Z " fill="#A5F6FB" transform="translate(287,47)"/>
<path d="M0 0 C0 0.99 0 1.98 0 3 C-1.65 3.66 -3.3 4.32 -5 5 C-5.66 4.01 -6.32 3.02 -7 2 C-2.25 0 -2.25 0 0 0 Z " fill="#11E8F5" transform="translate(280,36)"/>
<path d="M0 0 C1.32 0.33 2.64 0.66 4 1 C2.68 2.32 1.36 3.64 0 5 C-0.99 4.67 -1.98 4.34 -3 4 C-2.01 2.68 -1.02 1.36 0 0 Z " fill="#5AEFF8" transform="translate(281,42)"/>
</svg>
