<?xml version="1.0" encoding="UTF-8"?>
<svg version="1.1" xmlns="http://www.w3.org/2000/svg" width="420" height="120">
<path d="M0 0 C5.90055709 -0.35403343 9.76143169 -0.06647901 15 3 C15.66 3 16.32 3 17 3 C17.33 2.34 17.66 1.68 18 1 C19.65 1 21.3 1 23 1 C23.5625 2.9375 23.5625 2.9375 24 5 C23.67 5.33 23.34 5.66 23 6 C23.71027344 5.98839844 24.42054688 5.97679687 25.15234375 5.96484375 C26.07144531 5.95582031 26.99054688 5.94679688 27.9375 5.9375 C28.85402344 5.92589844 29.77054688 5.91429687 30.71484375 5.90234375 C33 6 33 6 34 7 C35.258125 6.814375 36.51625 6.62875 37.8125 6.4375 C41.17432196 5.95465304 43.12467813 5.96331368 46 8 C45.67 9.65 45.34 11.3 45 13 C44.01 13.33 43.02 13.66 42 14 C40.77479736 17.00847418 40.77479736 17.00847418 40 20 C39.34 20 38.68 20 38 20 C37.67 18.35 37.34 16.7 37 15 C35.43784452 14.83013455 33.8752548 14.66426036 32.3125 14.5 C31.44238281 14.4071875 30.57226562 14.314375 29.67578125 14.21875 C25.77200963 13.89960955 22.74286996 13.75237668 19 15 C8.45794393 16.75700935 8.45794393 16.75700935 3.75 14.3125 C2 12 2 12 2 8 C3.32 7.34 4.64 6.68 6 6 C6 5.01 6 4.02 6 3 C3.69 3 1.38 3 -1 3 C-0.67 2.01 -0.34 1.02 0 0 Z M9 4 C9 4.99 9 5.98 9 7 C9.928125 7.12375 9.928125 7.12375 10.875 7.25 C13 8 13 8 14.25 10.0625 C14.4975 10.701875 14.745 11.34125 15 12 C15.33 10.68 15.66 9.36 16 8 C12.90672105 5.02324541 12.90672105 5.02324541 9 4 Z M4 10 C4.66 10.66 5.32 11.32 6 12 C6 11.34 6 10.68 6 10 C5.34 10 4.68 10 4 10 Z M9 10 C9 10.99 9 11.98 9 13 C10.65 13 12.3 13 14 13 C13.01 12.67 12.02 12.34 11 12 C11 11.34 11 10.68 11 10 C10.34 10 9.68 10 9 10 Z " fill="#FFFFFF" transform="translate(158,39)"/>
<path d="M0 0 C1.98 0 3.96 0 6 0 C7.8984375 1.96875 7.8984375 1.96875 9.375 4.5 C9.87773437 5.3353125 10.38046875 6.170625 10.8984375 7.03125 C11.26195312 7.6809375 11.62546875 8.330625 12 9 C12.56267578 8.02546875 12.56267578 8.02546875 13.13671875 7.03125 C13.64847656 6.1959375 14.16023437 5.360625 14.6875 4.5 C15.43580078 3.24703125 15.43580078 3.24703125 16.19921875 1.96875 C16.79347656 1.3190625 17.38773438 0.669375 18 0 C19.65 0 21.3 0 23 0 C23 7.59 23 15.18 23 23 C21.35 23 19.7 23 18 23 C17.505 18.05 17.505 18.05 17 13 C16.608125 13.825 16.21625 14.65 15.8125 15.5 C15.214375 16.325 14.61625 17.15 14 18 C11.3125 18.3125 11.3125 18.3125 9 18 C8.34 16.68 7.68 15.36 7 14 C6.67 16.97 6.34 19.94 6 23 C4.02 23 2.04 23 0 23 C0 15.41 0 7.82 0 0 Z " fill="#FFFFFF" transform="translate(191,68)"/>
<path d="M0 0 C0.85464844 -0.00515625 1.70929688 -0.0103125 2.58984375 -0.015625 C6.33063227 0.38622906 8.38634496 1.45310299 10.8125 4.3125 C12.53674871 8.36448447 12.65372931 11.90643534 12.0625 16.25 C10.43849816 19.88467079 9.40136956 21.02408696 6.0625 23.25 C0.97503742 23.9272783 -3.49432364 24.07467221 -8 21.5 C-10.90294516 18.12883787 -11.81522695 16.35045747 -12.3125 11.875 C-11.86810645 7.57919568 -10.64158706 5.57216411 -7.9375 2.25 C-4.71002945 0.09835297 -3.73244361 -0.02245079 0 0 Z M-4.9375 8.25 C-5.6875 11.75 -5.6875 11.75 -4.9375 15.25 C-3.37952118 17.39782671 -3.37952118 17.39782671 -0.9375 18.25 C2.43286311 18.00925978 3.65048021 17.66201979 6.0625 15.25 C6.40740322 11.19738713 6.36413882 9.70245824 4.0625 6.25 C0.32155979 4.44402887 -1.94373635 5.58887675 -4.9375 8.25 Z " fill="#FFFFFF" transform="translate(176.9375,67.75)"/>
<path d="M0 0 C3.44176786 1.71736474 5.48170806 4.12115715 7.4375 7.4375 C8.45832896 12.08794305 7.34314017 15.93855703 5 20 C4.34 20 3.68 20 3 20 C3 20.66 3 21.32 3 22 C-0.97972809 23.98986404 -5.67250994 23.5180798 -10 23 C-13.13756506 21.75829954 -13.81312896 20.81991266 -16 18 C-17.22453446 13.92067736 -17.29595168 10.33178256 -16.375 6.1875 C-12.32085907 -0.26226967 -7.20811376 -1.33782591 0 0 Z M-7.75 6.3125 C-9.8571055 7.80996505 -9.8571055 7.80996505 -11 9 C-11.29386153 12.72224599 -11.14809171 13.77786243 -9 17 C-6.13362718 18.08892339 -6.13362718 18.08892339 -3 18 C-0.39685006 16.6469872 -0.39685006 16.6469872 1 14 C0.85387105 10.30567489 0.85387105 10.30567489 0 7 C-3.26120289 5.22963272 -4.30137989 4.66656768 -7.75 6.3125 Z " fill="#FFFFFF" transform="translate(251,68)"/>
<path d="M0 0 C11 0 11 0 14.1875 1.6875 C16 4 16 4 16.4375 6.5625 C16 9 16 9 14 12 C14.66 12 15.32 12 16 12 C17.03321725 15.28750944 17.20141923 16.57797876 15.6875 19.75 C14 22 14 22 12 23 C9.95944995 23.07065617 7.91665743 23.08421976 5.875 23.0625 C2.966875 23.0315625 2.966875 23.0315625 0 23 C0 15.41 0 7.82 0 0 Z M6 6 C6 6.99 6 7.98 6 9 C7.32 8.67 8.64 8.34 10 8 C10 7.34 10 6.68 10 6 C8.68 6 7.36 6 6 6 Z M6 14 C6 15.32 6 16.64 6 18 C7.65 17.67 9.3 17.34 11 17 C10.67 16.01 10.34 15.02 10 14 C8.68 14 7.36 14 6 14 Z " fill="#FFFFFF" transform="translate(217,68)"/>
<path d="M0 0 C0.66 0.33 1.32 0.66 2 1 C2 2.32 2 3.64 2 5 C3.98 5 5.96 5 8 5 C8 4.01 8 3.02 8 2 C10.31 2 12.62 2 15 2 C17.125 6.625 17.125 6.625 16 10 C16.38932856 12.14255793 16.38932856 12.14255793 17 14 C15.68 14 14.36 14 13 14 C12.505 13.01 12.505 13.01 12 12 C11.67 12.66 11.34 13.32 11 14 C10.01 14 9.02 14 8 14 C8 11.69 8 9.38 8 7 C7.01 7.66 6.02 8.32 5 9 C5.33 10.98 5.66 12.96 6 15 C5.4225 14.649375 4.845 14.29875 4.25 13.9375 C1.60607414 12.83586422 0.63828852 13.03262754 -2 14 C-2.99 14.495 -2.99 14.495 -4 15 C-3.125 11.125 -3.125 11.125 -2 10 C-4.475 8.515 -4.475 8.515 -7 7 C-7.33 9.31 -7.66 11.62 -8 14 C-8.99 14 -9.98 14 -11 14 C-11 11.03 -11 8.06 -11 5 C-11.99 5.66 -12.98 6.32 -14 7 C-13.79375 7.78375 -13.5875 8.5675 -13.375 9.375 C-13.25125 10.24125 -13.1275 11.1075 -13 12 C-13.66 12.66 -14.32 13.32 -15 14 C-17.61580479 13.6730244 -19.64078137 13.17960932 -22 12 C-22 10 -22 10 -20 8 C-20.28604898 6.32457024 -20.61781233 4.65614657 -21 3 C-20 2 -20 2 -16.62109375 1.90234375 C-15.22652923 1.90901631 -13.83198257 1.92097468 -12.4375 1.9375 C-11.72658203 1.94201172 -11.01566406 1.94652344 -10.28320312 1.95117188 C-8.52209987 1.96299136 -6.76103964 1.98092737 -5 2 C-5 2.99 -5 3.98 -5 5 C-3.68 5 -2.36 5 -1 5 C-0.67 3.35 -0.34 1.7 0 0 Z M11 5 C11.33 5.66 11.66 6.32 12 7 C12.33 6.34 12.66 5.68 13 5 C12.34 5 11.68 5 11 5 Z " fill="#F16C23" transform="translate(243,41)"/>
<path d="M0 0 C1.21236328 0.01353516 1.21236328 0.01353516 2.44921875 0.02734375 C3.37154297 0.04474609 3.37154297 0.04474609 4.3125 0.0625 C4.3125 2.0425 4.3125 4.0225 4.3125 6.0625 C2.26171875 6.29036458 0.2109375 6.51822917 -1.83984375 6.74609375 C-3.69890229 6.88136614 -3.69890229 6.88136614 -4.6875 8.0625 C-5.02088596 11.52062169 -5.02088596 11.52062169 -4.6875 15.0625 C-1.41683122 17.24294585 -0.43331273 17.16107402 3.3125 17.0625 C4.3125 18.0625 4.3125 18.0625 4.375 20.625 C4.354375 21.429375 4.33375 22.23375 4.3125 23.0625 C-4.61739844 23.68672591 -4.61739844 23.68672591 -8.6875 21.3125 C-11.63497786 17.99658741 -12.53907989 16.18625223 -13.125 11.75 C-12.5827299 7.17943773 -10.93695651 4.30280312 -7.6875 1.0625 C-4.80538698 0.10179566 -2.98899956 -0.04331883 0 0 Z " fill="#FFFFFF" transform="translate(160.6875,67.9375)"/>
<path d="M0 0 C1.65 0 3.3 0 5 0 C5 2.31 5 4.62 5 7 C7.31 7 9.62 7 12 7 C12 8.65 12 10.3 12 12 C9.69 12 7.38 12 5 12 C5 14.31 5 16.62 5 19 C3.35 19 1.7 19 0 19 C0 16.69 0 14.38 0 12 C-2.31 12 -4.62 12 -7 12 C-7 10.35 -7 8.7 -7 7 C-4.69 7 -2.38 7 0 7 C0 4.69 0 2.38 0 0 Z " fill="#FFFFFF" transform="translate(268,70)"/>
<path d="M0 0 C7.20596877 4.40364758 9.84641423 9.5392427 12.4375 17.3125 C13.4275 17.6425 14.4175 17.9725 15.4375 18.3125 C15.4375 18.9725 15.4375 19.6325 15.4375 20.3125 C14.4475 20.3125 13.4575 20.3125 12.4375 20.3125 C12.1075 21.6325 11.7775 22.9525 11.4375 24.3125 C10.7775 24.3125 10.1175 24.3125 9.4375 24.3125 C9.4375 22.9925 9.4375 21.6725 9.4375 20.3125 C8.4475 20.3125 7.4575 20.3125 6.4375 20.3125 C6.4375 19.6525 6.4375 18.9925 6.4375 18.3125 C7.4275 18.3125 8.4175 18.3125 9.4375 18.3125 C9.01066368 17.03804546 8.57052798 15.76804118 8.125 14.5 C7.88136719 13.79230469 7.63773438 13.08460937 7.38671875 12.35546875 C6.36831271 10.16359073 5.14784576 8.98451868 3.4375 7.3125 C3.4375 6.6525 3.4375 5.9925 3.4375 5.3125 C-3.03702353 1.8262181 -9.2311084 0.2085039 -16.5625 1.3125 C-19.36018463 2.43391828 -21.91372494 3.72775472 -24.53125 5.21875 C-26.5625 6.3125 -26.5625 6.3125 -28.5625 6.3125 C-26.92178557 2.48416632 -25.0163303 0.8460132 -21.171875 -0.921875 C-14.43501689 -2.89855792 -6.43838472 -2.99317696 0 0 Z " fill="#0070F8" transform="translate(198.5625,29.6875)"/>
<path d="M0 0 C1.39456452 0.00667256 2.78911118 0.01863093 4.18359375 0.03515625 C4.89451172 0.03966797 5.60542969 0.04417969 6.33789062 0.04882812 C8.09899388 0.06064761 9.86005411 0.07858362 11.62109375 0.09765625 C11.62109375 1.08765625 11.62109375 2.07765625 11.62109375 3.09765625 C10.63109375 3.09765625 9.64109375 3.09765625 8.62109375 3.09765625 C8.62109375 6.06765625 8.62109375 9.03765625 8.62109375 12.09765625 C7.63109375 12.09765625 6.64109375 12.09765625 5.62109375 12.09765625 C5.62109375 9.12765625 5.62109375 6.15765625 5.62109375 3.09765625 C4.63109375 3.75765625 3.64109375 4.41765625 2.62109375 5.09765625 C2.82734375 5.88140625 3.03359375 6.66515625 3.24609375 7.47265625 C3.36984375 8.33890625 3.49359375 9.20515625 3.62109375 10.09765625 C2.96109375 10.75765625 2.30109375 11.41765625 1.62109375 12.09765625 C-0.99471104 11.77068065 -3.01968762 11.27726557 -5.37890625 10.09765625 C-5.37890625 8.09765625 -5.37890625 8.09765625 -3.37890625 6.09765625 C-3.66495523 4.42222649 -3.99671858 2.75380282 -4.37890625 1.09765625 C-3.37890625 0.09765625 -3.37890625 0.09765625 0 0 Z " fill="#FFFEFE" transform="translate(226.37890625,42.90234375)"/>
<path d="M0 0 C0.69738281 0.01804688 1.39476562 0.03609375 2.11328125 0.0546875 C3.82611539 0.10161446 5.53823824 0.17335395 7.25 0.25 C7.25 1.24 7.25 2.23 7.25 3.25 C6.10660156 3.29898438 4.96320313 3.34796875 3.78515625 3.3984375 C2.29424527 3.47345189 0.80336108 3.54900028 -0.6875 3.625 C-1.81961914 3.67140625 -1.81961914 3.67140625 -2.97460938 3.71875 C-4.90507395 3.8226315 -6.82942081 4.02895614 -8.75 4.25 C-10.02861615 6.80723229 -9.86336609 8.61737102 -9.84765625 11.4765625 C-9.84443359 12.5078125 -9.84121094 13.5390625 -9.83789062 14.6015625 C-9.82951172 15.68179688 -9.82113281 16.76203125 -9.8125 17.875 C-9.80798828 18.96296875 -9.80347656 20.0509375 -9.79882812 21.171875 C-9.78701776 23.86463789 -9.77054778 26.55729188 -9.75 29.25 C-7.44 30.24 -5.13 31.23 -2.75 32.25 C-2.75 32.91 -2.75 33.57 -2.75 34.25 C-8.21257062 34.61417137 -8.21257062 34.61417137 -10.42211914 33.11694336 C-13.37817702 28.96085316 -12.21543486 22.71633739 -12.1875 17.8125 C-12.20748047 16.57177734 -12.22746094 15.33105469 -12.24804688 14.05273438 C-12.24740234 12.86099609 -12.24675781 11.66925781 -12.24609375 10.44140625 C-12.24794678 9.35029541 -12.2497998 8.25918457 -12.25170898 7.13500977 C-11.02953647 0.10707177 -6.19097388 -0.30428227 0 0 Z " fill="#54D9EF" transform="translate(147.75,46.75)"/>
<path d="M0 0 C2.24940295 -0.08119503 4.49964871 -0.13927819 6.75 -0.1875 C8.00296875 -0.22230469 9.2559375 -0.25710937 10.546875 -0.29296875 C14.31472605 0.02670187 15.426189 0.31714388 18 3 C18.50170898 5.97094727 18.50170898 5.97094727 18.49609375 9.56640625 C18.49706055 11.5009668 18.49706055 11.5009668 18.49804688 13.47460938 C18.48765381 14.14516357 18.47726074 14.81571777 18.46655273 15.5065918 C18.43754592 17.55925016 18.44595322 19.60933346 18.45898438 21.66210938 C18.41053004 29.11289476 18.41053004 29.11289476 18 32 C15 34 15 34 11 34 C11 33.34 11 32.68 11 32 C12.65 31.67 14.3 31.34 16 31 C16 21.76 16 12.52 16 3 C10.72 3 5.44 3 0 3 C0 2.01 0 1.02 0 0 Z " fill="#FA1660" transform="translate(273,47)"/>
<path d="M0 0 C2.31 0 4.62 0 7 0 C9.125 4.625 9.125 4.625 8 8 C8.38932856 10.14255793 8.38932856 10.14255793 9 12 C7.68 12 6.36 12 5 12 C4.67 11.34 4.34 10.68 4 10 C3.67 10.66 3.34 11.32 3 12 C2.01 12 1.02 12 0 12 C0 8.04 0 4.08 0 0 Z M3 3 C3.33 3.66 3.66 4.32 4 5 C4.33 4.34 4.66 3.68 5 3 C4.34 3 3.68 3 3 3 Z " fill="#FFFEFE" transform="translate(251,43)"/>
<path d="M0 0 C1.32 0.33 2.64 0.66 4 1 C4.268125 2.134375 4.53625 3.26875 4.8125 4.4375 C5.4003125 6.2009375 5.4003125 6.2009375 6 8 C6.99 8.33 7.98 8.66 9 9 C9 9.66 9 10.32 9 11 C8.01 11 7.02 11 6 11 C5.67 12.32 5.34 13.64 5 15 C4.34 15 3.68 15 3 15 C3 13.68 3 12.36 3 11 C2.01 11 1.02 11 0 11 C0 10.34 0 9.68 0 9 C0.99 9 1.98 9 3 9 C2.01 6.03 1.02 3.06 0 0 Z " fill="#F0FDFE" transform="translate(205,39)"/>
<path d="M0 0 C0.99 0 1.98 0 3 0 C3 0.99 3 1.98 3 3 C3.99 3 4.98 3 6 3 C6 3.99 6 4.98 6 6 C5.01 6 4.02 6 3 6 C3 7.32 3 8.64 3 10 C2.01 10 1.02 10 0 10 C0 8.68 0 7.36 0 6 C-0.99 6 -1.98 6 -3 6 C-3 5.01 -3 4.02 -3 3 C-2.01 3 -1.02 3 0 3 C0 2.01 0 1.02 0 0 Z " fill="#FFFFFF" transform="translate(264,44)"/>
<path d="M0 0 C2.125 -0.4375 2.125 -0.4375 5 0 C6.75416021 1.6726711 8.19526285 3.44763882 9.66796875 5.37109375 C10.92224334 7.13166095 10.92224334 7.13166095 13 8 C13 8.66 13 9.32 13 10 C12.4225 9.649375 11.845 9.29875 11.25 8.9375 C8.60607414 7.83586422 7.63828852 8.03262754 5 9 C4.01 9.495 4.01 9.495 3 10 C3.875 6.125 3.875 6.125 5 5 C3.7625 4.319375 3.7625 4.319375 2.5 3.625 C1.675 3.08875 0.85 2.5525 0 2 C0 1.34 0 0.68 0 0 Z " fill="#ED2D54" transform="translate(236,46)"/>
<path d="M0 0 C4.98743882 1.27585644 7.65862518 3.08581807 11 7 C11.33 7.99 11.66 8.98 12 10 C9.525 9.01 9.525 9.01 7 8 C7 7.34 7 6.68 7 6 C4.66785852 4.79371992 2.50357861 3.8345262 0 3 C0 2.01 0 1.02 0 0 Z " fill="#04DCF5" transform="translate(195,29)"/>
<path d="M0 0 C2 0 2 0 3.5625 1.125 C5.49026016 3.63946978 5.65505107 5.89545967 6 9 C5.34 8.67 4.68 8.34 4 8 C4 7.34 4 6.68 4 6 C2.68 5.34 1.36 4.68 0 4 C0 2.68 0 1.36 0 0 Z " fill="#F04E3A" transform="translate(242,45)"/>
</svg>
