<?xml version="1.0" encoding="UTF-8"?>
<svg version="1.1" xmlns="http://www.w3.org/2000/svg" width="420" height="370">
<path d="M0 0 C47.85 0 95.7 0 145 0 C145 3.96 145 7.92 145 12 C229.48 12 313.96 12 401 12 C401 127.5 401 243 401 362 C399.68 362 398.36 362 397 362 C397.33 362.99 397.66 363.98 398 365 C397.34 365 396.68 365 396 365 C396 366.65 396 368.3 396 370 C389.47692308 370.36923077 389.47692308 370.36923077 387.0625 368.5 C386.711875 368.005 386.36125 367.51 386 367 C386.33 366.01 386.66 365.02 387 364 C386.34 364 385.68 364 385 364 C384.67 365.65 384.34 367.3 384 369 C383.01 368.67 382.02 368.34 381 368 C381.33 367.34 381.66 366.68 382 366 C382.35169068 364.67139075 382.68770276 363.33841672 383 362 C382.34 362 381.68 362 381 362 C381 361.34 381 360.68 381 360 C379.35 360.66 377.7 361.32 376 362 C376.33 362.66 376.66 363.32 377 364 C376.4225 363.835 375.845 363.67 375.25 363.5 C372.73335631 362.85537969 372.73335631 362.85537969 369 363 C368.67 363.66 368.34 364.32 368 365 C367.34 365 366.68 365 366 365 C365.34 364.34 364.68 363.68 364 363 C360.70285207 363.32971479 359.3773161 363.6226839 357 366 C356.01 365.67 355.02 365.34 354 365 C353.67 365.99 353.34 366.98 353 368 C352.34 368 351.68 368 351 368 C351.33 366.35 351.66 364.7 352 363 C349.36 362.67 346.72 362.34 344 362 C343.67 362.66 343.34 363.32 343 364 C342.01 363.67 341.02 363.34 340 363 C339.67 363.66 339.34 364.32 339 365 C338.0925 364.773125 337.185 364.54625 336.25 364.3125 C332.34236067 363.93676545 331.95323309 364.71362599 329 367 C325.62963689 366.75925978 324.41201979 366.41201979 322 364 C321.01 364.66 320.02 365.32 319 366 C318.67 365.34 318.34 364.68 318 364 C315.97536745 363.34786708 315.97536745 363.34786708 314 363 C314 363.66 314 364.32 314 365 C313.34 365 312.68 365 312 365 C311.67 363.68 311.34 362.36 311 361 C310.34 361 309.68 361 309 361 C308.67 361.66 308.34 362.32 308 363 C307.2575 362.979375 306.515 362.95875 305.75 362.9375 C303.05832211 362.89759189 303.05832211 362.89759189 300.75 363.5625 C300.1725 363.706875 299.595 363.85125 299 364 C298.67 363.67 298.34 363.34 298 363 C297.01 363.33 296.02 363.66 295 364 C294.34 363.01 293.68 362.02 293 361 C292.67 361.99 292.34 362.98 292 364 C289.69 364 287.38 364 285 364 C284.67 364.66 284.34 365.32 284 366 C283.67 365.34 283.34 364.68 283 364 C281.02 365.65 279.04 367.3 277 369 C277 368.34 277 367.68 277 367 C275.35 366.67 273.7 366.34 272 366 C272.66 365.01 273.32 364.02 274 363 C272.35 363.33 270.7 363.66 269 364 C268.67 364.99 268.34 365.98 268 367 C267.375 365.125 267.375 365.125 267 363 C267.66 362.34 268.32 361.68 269 361 C267.7763932 360.9254644 267.7763932 360.9254644 266 362 C265.67 362.99 265.34 363.98 265 365 C264.34 364.34 263.68 363.68 263 363 C262.54625 363.66 262.0925 364.32 261.625 365 C261.08875 365.66 260.5525 366.32 260 367 C259.34 367 258.68 367 258 367 C258 366.01 258 365.02 258 364 C254.06924356 364.57452746 254.06924356 364.57452746 251 367 C251.33 367.99 251.66 368.98 252 370 C251.34 370 250.68 370 250 370 C247.875 365.375 247.875 365.375 249 362 C247.68 362 246.36 362 245 362 C245 362.66 245 363.32 245 364 C244.01 363.67 243.02 363.34 242 363 C241.67 362.34 241.34 361.68 241 361 C238.97536745 360.34786708 238.97536745 360.34786708 237 360 C237 360.66 237 361.32 237 362 C237.66 362 238.32 362 239 362 C239 362.66 239 363.32 239 364 C239.66 364.33 240.32 364.66 241 365 C240.01 365.33 239.02 365.66 238 366 C237.38125 365.319375 237.38125 365.319375 236.75 364.625 C234.93591905 362.94049626 233.24714373 362.00734029 231 361 C230.9175 361.61875 230.835 362.2375 230.75 362.875 C230 365 230 365 227.9375 366.25 C227.298125 366.4975 226.65875 366.745 226 367 C225.67 366.34 225.34 365.68 225 365 C221.4144509 362.60963393 218.2914923 362 214 362 C213.67 362.66 213.34 363.32 213 364 C209.75 365.3125 209.75 365.3125 206 366 C203.0625 364.625 203.0625 364.625 201 363 C200.01 364.32 199.02 365.64 198 367 C196.68 366.34 195.36 365.68 194 365 C194.33 364.34 194.66 363.68 195 363 C194.34 363 193.68 363 193 363 C192.67 362.01 192.34 361.02 192 360 C191.34 361.98 190.68 363.96 190 366 C189.67 365.01 189.34 364.02 189 363 C188.1028125 363.3403125 188.1028125 363.3403125 187.1875 363.6875 C186.465625 363.790625 185.74375 363.89375 185 364 C183.4375 362.5625 183.4375 362.5625 182 361 C181.01 361 180.02 361 179 361 C178.34 361.99 177.68 362.98 177 364 C176.34 363.34 175.68 362.68 175 362 C171.99969942 361.65373409 171.99969942 361.65373409 170.4375 363.5 C169.963125 363.995 169.48875 364.49 169 365 C168 365 167 365 166 365 C165.34 365.33 164.68 365.66 164 366 C163.67 365.34 163.34 364.68 163 364 C162.01 364.33 161.02 364.66 160 365 C159.67 365.99 159.34 366.98 159 368 C158.34 368 157.68 368 157 368 C157 368.66 157 369.32 157 370 C156.34 370 155.68 370 155 370 C155 368.02 155 366.04 155 364 C155.99 364.33 156.98 364.66 158 365 C158 364.34 158 363.68 158 363 C156.51886719 363.14308594 156.51886719 363.14308594 155.0078125 363.2890625 C153.72648438 363.39992188 152.44515625 363.51078125 151.125 363.625 C149.21074219 363.79902344 149.21074219 363.79902344 147.2578125 363.9765625 C146.18273437 363.98429687 145.10765625 363.99203125 144 364 C143.34 363.34 142.68 362.68 142 362 C141.34 362.33 140.68 362.66 140 363 C139.01 363 138.02 363 137 363 C137 363.66 137 364.32 137 365 C134 367 134 367 131 367 C132 365 132 365 133 364 C130.36 364 127.72 364 125 364 C125.33 365.32 125.66 366.64 126 368 C124.02 367.67 122.04 367.34 120 367 C119.67 365.68 119.34 364.36 119 363 C118.34 363.33 117.68 363.66 117 364 C117 363.34 117 362.68 117 362 C115.68 362.99 114.36 363.98 113 365 C113 364.34 113 363.68 113 363 C111.0745356 361.8509288 111.0745356 361.8509288 109 362 C107.63838689 362.96113866 106.30144802 363.95884159 105 365 C104.01 363.515 104.01 363.515 103 362 C102.01 363.32 101.02 364.64 100 366 C99.67 365.34 99.34 364.68 99 364 C98.1646875 364.309375 98.1646875 364.309375 97.3125 364.625 C94.340462 365.10695211 92.68020059 364.26565028 90 363 C90 362.34 90 361.68 90 361 C89.484375 361.33 88.96875 361.66 88.4375 362 C85.21973488 363.32010877 82.4429472 363.13242105 79 363 C79 363.66 79 364.32 79 365 C78.01 364.67 77.02 364.34 76 364 C76 363.34 76 362.68 76 362 C74.35 362.33 72.7 362.66 71 363 C71 364.32 71 365.64 71 367 C70.34 367 69.68 367 69 367 C68.505 365.515 68.505 365.515 68 364 C67.34 363.34 66.68 362.68 66 362 C65.67 361.67 65.34 361.34 65 361 C65 360.34 65 359.68 65 359 C64.34 359 63.68 359 63 359 C62.67 360.32 62.34 361.64 62 363 C61.01 363 60.02 363 59 363 C57.32900023 363.31088368 55.66128463 363.64080332 54 364 C53.67 365.65 53.34 367.3 53 369 C52.01 368.67 51.02 368.34 50 368 C50.33 367.01 50.66 366.02 51 365 C50.67 364.34 50.34 363.68 50 363 C46.20443637 362.86031394 46.20443637 362.86031394 43.375 363.5625 C41 364 41 364 39 363 C38.67 363.99 38.34 364.98 38 366 C35.525 364.515 35.525 364.515 33 363 C30.47411298 365.36292656 29.11179163 366.66462511 28 370 C27.01 369.67 26.02 369.34 25 369 C24 366 24 366 24 364 C22.35 363.34 20.7 362.68 19 362 C18.67 258.38 18.34 154.76 18 48 C12.06 45.03 6.12 42.06 0 39 C0 26.13 0 13.26 0 0 Z M340 355 C341 357 341 357 341 357 Z M75 357 C76 359 76 359 76 359 Z M175 357 C175 357.99 175 358.98 175 360 C176.32 359.34 177.64 358.68 179 358 C177.68 357.67 176.36 357.34 175 357 Z M248 357 C249 359 249 359 249 359 Z M264 357 C265 359 265 359 265 359 Z M385 357 C386 359 386 359 386 359 Z M85 358 C86 360 86 360 86 360 Z M126 358 C126.33 358.99 126.66 359.98 127 361 C127.33 360.01 127.66 359.02 128 358 C127.34 358 126.68 358 126 358 Z M141 358 C142 361 142 361 142 361 Z M155 358 C155.66 358.66 156.32 359.32 157 360 C157 359.34 157 358.68 157 358 C156.34 358 155.68 358 155 358 Z M358 358 C359 360 359 360 359 360 Z M78 359 C79 361 79 361 79 361 Z M147 359 C146.67 359.66 146.34 360.32 146 361 C146.99 361 147.98 361 149 361 C149 360.34 149 359.68 149 359 C148.34 359 147.68 359 147 359 Z M170 359 C171 361 171 361 171 361 Z M189 359 C190 361 190 361 190 361 Z M282 359 C281.67 359.99 281.34 360.98 281 362 C281.99 361.67 282.98 361.34 284 361 C283.34 360.34 282.68 359.68 282 359 Z M319 359 C320 361 320 361 320 361 Z M389 359 C390 361 390 361 390 361 Z M34 360 C34 360.66 34 361.32 34 362 C34.66 361.67 35.32 361.34 36 361 C35.34 360.67 34.68 360.34 34 360 Z M134 360 C135 362 135 362 135 362 Z M152 360 C156 361 156 361 156 361 Z M186 360 C187 362 187 362 187 362 Z M197 360 C196.67 360.66 196.34 361.32 196 362 C196.99 361.67 197.98 361.34 199 361 C198.34 360.67 197.68 360.34 197 360 Z M262 360 C262.33 360.66 262.66 361.32 263 362 C263.33 361.34 263.66 360.68 264 360 C263.34 360 262.68 360 262 360 Z M276 360 C276.66 361.32 277.32 362.64 278 364 C278 362.68 278 361.36 278 360 C277.34 360 276.68 360 276 360 Z M288 360 C289 362 289 362 289 362 Z M340 360 C340 360.66 340 361.32 340 362 C341.32 361.67 342.64 361.34 344 361 C342.68 360.67 341.36 360.34 340 360 Z M352 360 C353 363 353 363 353 363 Z M24 361 C25 363 25 363 25 363 Z M51 361 C52 363 52 363 52 363 Z M131 361 C130.67 361.66 130.34 362.32 130 363 C130.99 362.67 131.98 362.34 133 362 C132.34 361.67 131.68 361.34 131 361 Z M330 361 C330.66 361.66 331.32 362.32 332 363 C332.33 362.34 332.66 361.68 333 361 C332.01 361 331.02 361 330 361 Z M27 362 C27 362.99 27 363.98 27 365 C27.66 365 28.32 365 29 365 C28.67 364.01 28.34 363.02 28 362 C27.67 362 27.34 362 27 362 Z M327 362 C328 364 328 364 328 364 Z M329 362 C330 364 330 364 330 364 Z M356 362 C357 364 357 364 357 364 Z M392 362 C391.34 362.66 390.68 363.32 390 364 C390.33 364.66 390.66 365.32 391 366 C391.66 366 392.32 366 393 366 C393 365.34 393 364.68 393 364 C393.66 363.67 394.32 363.34 395 363 C394.01 362.67 393.02 362.34 392 362 Z M196 363 C196 363.66 196 364.32 196 365 C196.99 365 197.98 365 199 365 C199 364.34 199 363.68 199 363 C198.01 363 197.02 363 196 363 Z M388 364 C388.33 365.32 388.66 366.64 389 368 C389.99 367.67 390.98 367.34 392 367 C391.34 367 390.68 367 390 367 C389.67 366.01 389.34 365.02 389 364 C388.67 364 388.34 364 388 364 Z " fill="#13092C" transform="translate(0,0)"/>
<path d="M0 0 C47.85 0 95.7 0 145 0 C145 3.96 145 7.92 145 12 C229.48 12 313.96 12 401 12 C401 127.5 401 243 401 362 C399.68 361.67 398.36 361.34 397 361 C397 247.15 397 133.3 397 16 C313.84 16 230.68 16 145 16 C145 23.26 145 30.52 145 38 C104.74 38 64.48 38 23 38 C22.97796902 78.96983213 22.9594993 119.93965869 22.94893467 160.90949504 C22.94768391 165.74247913 22.94638959 170.5754632 22.94506836 175.40844727 C22.94467489 176.8517338 22.94467489 176.8517338 22.94427348 178.32417765 C22.93991798 193.91941471 22.93203109 209.5146481 22.9228472 225.10988299 C22.91350734 241.10296275 22.90794368 257.09604058 22.90591151 273.08912295 C22.90453697 282.96374734 22.90019013 292.83836136 22.89208353 302.71298256 C22.88681198 309.47737908 22.88519665 316.24177021 22.88649862 323.00616864 C22.88714136 326.91328653 22.88613172 330.82038623 22.88079453 334.72750092 C22.87505939 338.95663639 22.87700273 343.18573277 22.87974548 347.41487122 C22.87683264 348.65901804 22.8739198 349.90316487 22.87091869 351.18501312 C22.87290974 352.31263964 22.87490079 353.44026616 22.87695217 354.60206318 C22.87657245 355.57908359 22.87619273 356.556104 22.8758015 357.56273109 C22.89820043 360.14049724 22.89820043 360.14049724 24 363 C22.35 362.67 20.7 362.34 19 362 C18.67 258.38 18.34 154.76 18 48 C12.06 45.03 6.12 42.06 0 39 C0 26.13 0 13.26 0 0 Z " fill="#361B75" transform="translate(0,0)"/>
<path d="M0 0 C84.48 0 168.96 0 256 0 C256 115.5 256 231 256 350 C254.68 349.67 253.36 349.34 252 349 C252 235.15 252 121.3 252 4 C168.84 4 85.68 4 0 4 C0 2.68 0 1.36 0 0 Z " fill="#2B1074" transform="translate(145,12)"/>
<path d="M0 0 C0.99 0 1.98 0 3 0 C2.99962028 0.68020307 2.99924056 1.36040614 2.99884933 2.06122142 C2.97648842 42.34397791 2.95932213 82.62673361 2.94893467 122.90949504 C2.94768391 127.74247913 2.94638959 132.5754632 2.94506836 137.40844727 C2.94480605 138.37063829 2.94454374 139.33282932 2.94427348 140.32417765 C2.93991798 155.91941471 2.93203109 171.5146481 2.9228472 187.10988299 C2.91350734 203.10296275 2.90794368 219.09604058 2.90591151 235.08912295 C2.90453697 244.96374734 2.90019013 254.83836136 2.89208353 264.71298256 C2.88681198 271.47737908 2.88519665 278.24177021 2.88649862 285.00616864 C2.88714136 288.91328653 2.88613172 292.82038623 2.88079453 296.72750092 C2.87505939 300.95663639 2.87700273 305.18573277 2.87974548 309.41487122 C2.87683264 310.65901804 2.8739198 311.90316487 2.87091869 313.18501312 C2.87290974 314.31263964 2.87490079 315.44026616 2.87695217 316.60206318 C2.87657245 317.57908359 2.87619273 318.556104 2.8758015 319.56273109 C2.89820043 322.14049724 2.89820043 322.14049724 4 325 C2.35 324.67 0.7 324.34 -1 324 C-1.02286469 282.86873209 -1.04049737 241.73746501 -1.05106533 200.60619203 C-1.05231611 195.75560913 -1.05361042 190.90502624 -1.05493164 186.05444336 C-1.05519395 185.0887371 -1.05545626 184.12303084 -1.05572652 183.12806075 C-1.06008358 167.47004056 -1.06797132 151.81202403 -1.0771528 136.15400601 C-1.08648835 120.09991524 -1.0920554 104.04582639 -1.09408849 87.99173301 C-1.09546393 78.07718053 -1.09981561 68.16263837 -1.10791647 58.24808907 C-1.11318271 51.45894449 -1.11480457 44.66980529 -1.11350138 37.88065881 C-1.11285781 33.95758663 -1.11387765 30.03453255 -1.11920547 26.11146355 C-1.12492602 21.86849153 -1.12300129 17.62555858 -1.12025452 13.38258362 C-1.12316736 12.12872016 -1.1260802 10.8748567 -1.12908131 9.58299738 C-1.12709026 8.45586956 -1.12509921 7.32874174 -1.12304783 6.16745853 C-1.12342755 5.18664092 -1.12380727 4.20582331 -1.1241985 3.19528395 C-1 1 -1 1 0 0 Z " fill="#26106C" transform="translate(20,38)"/>
<path d="M0 0 C6.27 0 12.54 0 19 0 C19 3.3 19 6.6 19 10 C12.73 7.03 6.46 4.06 0 1 C0 0.67 0 0.34 0 0 Z " fill="#321790" transform="translate(0,38)"/>
<path d="M0 0 C2.4375 0.8125 2.4375 0.8125 4.4375 2.8125 C4.6875 5.3125 4.6875 5.3125 4.4375 7.8125 C2.4375 9.8125 2.4375 9.8125 -0.5625 10.0625 C-3.5625 9.8125 -3.5625 9.8125 -5.5625 7.8125 C-5.93046448 4.94237704 -5.93759409 3.40475382 -4.375 0.9375 C-2.5625 -0.1875 -2.5625 -0.1875 0 0 Z " fill="#CECBDA" transform="translate(77.5625,14.1875)"/>
<path d="M0 0 C0.99 0 1.98 0 3 0 C3.33 1.32 3.66 2.64 4 4 C4.66 4 5.32 4 6 4 C6.33 2.68 6.66 1.36 7 0 C7.99 0 8.98 0 10 0 C10 2.97 10 5.94 10 9 C9.34 9 8.68 9 8 9 C7.67 8.34 7.34 7.68 7 7 C6.67 7.66 6.34 8.32 6 9 C5.34 9 4.68 9 4 9 C3.67 8.34 3.34 7.68 3 7 C2.67 7.66 2.34 8.32 2 9 C1.34 9 0.68 9 0 9 C0 6.03 0 3.06 0 0 Z " fill="#DCD8E5" transform="translate(23,15)"/>
<path d="M0 0 C1.98 0 3.96 0 6 0 C7.125 3.75 7.125 3.75 6 6 C6.33 6.99 6.66 7.98 7 9 C6.01 8.67 5.02 8.34 4 8 C3.67 7.34 3.34 6.68 3 6 C2.67 6.99 2.34 7.98 2 9 C1.34 9 0.68 9 0 9 C0 6.03 0 3.06 0 0 Z " fill="#CFCDDB" transform="translate(121,15)"/>
<path d="M0 0 C0.99 0 1.98 0 3 0 C6 5.625 6 5.625 6 9 C5.34 9 4.68 9 4 9 C4 8.34 4 7.68 4 7 C1.69 7.66 -0.62 8.32 -3 9 C-2.01 6.03 -1.02 3.06 0 0 Z " fill="#D2CFDD" transform="translate(113,15)"/>
<path d="M0 0 C0.99 0 1.98 0 3 0 C6 5.625 6 5.625 6 9 C5.34 9 4.68 9 4 9 C4 8.34 4 7.68 4 7 C1.69 7.66 -0.62 8.32 -3 9 C-2.01 6.03 -1.02 3.06 0 0 Z " fill="#D4CFE0" transform="translate(38,15)"/>
<path d="M0 0 C1.98 0 3.96 0 6 0 C6.33 1.32 6.66 2.64 7 4 C5.35 4.33 3.7 4.66 2 5 C2 6.32 2 7.64 2 9 C1.34 9 0.68 9 0 9 C0 6.03 0 3.06 0 0 Z " fill="#CBC6D8" transform="translate(84,15)"/>
<path d="M0 0 C2.0625 0.4375 2.0625 0.4375 4 1 C2.68 1.33 1.36 1.66 0 2 C0 2.66 0 3.32 0 4 C1.32 4.33 2.64 4.66 4 5 C3.67 6.65 3.34 8.3 3 10 C1.35 10 -0.3 10 -2 10 C-2 9.34 -2 8.68 -2 8 C-0.68 8 0.64 8 2 8 C2 7.34 2 6.68 2 6 C0.68 5.67 -0.64 5.34 -2 5 C-1.125 1.125 -1.125 1.125 0 0 Z " fill="#DAD7E4" transform="translate(52,14)"/>
<path d="M0 0 C1.98 0 3.96 0 6 0 C6 1.65 6 3.3 6 5 C4.35 5 2.7 5 1 5 C0.67 6.32 0.34 7.64 0 9 C0 6.03 0 3.06 0 0 Z " fill="#D3CEDF" transform="translate(64,15)"/>
<path d="M0 0 C0.33 0 0.66 0 1 0 C1 2.31 1 4.62 1 7 C2.32 7 3.64 7 5 7 C5 4.69 5 2.38 5 0 C5.66 0 6.32 0 7 0 C7.09765625 6.15234375 7.09765625 6.15234375 7 8 C6 9 6 9 3.5 9.125 C1 9 1 9 0 8 C-0.14115161 5.32941149 -0.04247107 2.67567762 0 0 Z " fill="#D5D2DF" transform="translate(93,15)"/>
<path d="M0 0 C0.99 0.33 1.98 0.66 3 1 C3 2.65 3 4.3 3 6 C-3.52307692 6.36923077 -3.52307692 6.36923077 -5.9375 4.5 C-6.4634375 3.7575 -6.4634375 3.7575 -7 3 C-6.01 2.67 -5.02 2.34 -4 2 C-3.67 2.33 -3.34 2.66 -3 3 C-2.01 2.67 -1.02 2.34 0 2 C0 1.34 0 0.68 0 0 Z " fill="#1B1053" transform="translate(393,364)"/>
<path d="M0 0 C2.0625 0.4375 2.0625 0.4375 4 1 C4.33 2.32 4.66 3.64 5 5 C3.35 5.33 1.7 5.66 0 6 C-0.38218767 4.34385343 -0.71395102 2.67542976 -1 1 C-0.67 0.67 -0.34 0.34 0 0 Z " fill="#3C2379" transform="translate(75,16)"/>
<path d="M0 0 C3 1 3 1 5 3 C5.99 2.67 6.98 2.34 8 2 C10.44839624 2.83603774 12.68860855 3.84430427 15 5 C14.67 5.66 14.34 6.32 14 7 C12.824375 6.690625 11.64875 6.38125 10.4375 6.0625 C6.63567025 5.1069599 2.88790739 4.48598842 -1 4 C-0.67 2.68 -0.34 1.36 0 0 Z " fill="#1A0F4F" transform="translate(138,363)"/>
<path d="M0 0 C0.66 0.66 1.32 1.32 2 2 C-1.72965139 4.03435531 -3.66905042 5 -8 5 C-8 4.34 -8 3.68 -8 3 C-8.66 2.67 -9.32 2.34 -10 2 C-6.60535554 -0.08901197 -3.95158471 -0.34361606 0 0 Z M-5 2 C-5.66 2.66 -6.32 3.32 -7 4 C-6.01 4 -5.02 4 -4 4 C-4.33 3.34 -4.66 2.68 -5 2 Z " fill="#1B1052" transform="translate(180,365)"/>
<path d="M0 0 C0.66 0 1.32 0 2 0 C2 2.31 2 4.62 2 7 C3.32 7 4.64 7 6 7 C6 7.66 6 8.32 6 9 C4.02 9 2.04 9 0 9 C0 6.03 0 3.06 0 0 Z " fill="#D2CFDD" transform="translate(103,15)"/>
<path d="M0 0 C1.23556641 0.01740234 1.23556641 0.01740234 2.49609375 0.03515625 C3.32238281 0.04417969 4.14867187 0.05320312 5 0.0625 C5.63808594 0.07410156 6.27617187 0.08570313 6.93359375 0.09765625 C7.26359375 1.41765625 7.59359375 2.73765625 7.93359375 4.09765625 C5.29359375 4.09765625 2.65359375 4.09765625 -0.06640625 4.09765625 C-0.39640625 3.43765625 -0.72640625 2.77765625 -1.06640625 2.09765625 C-1.72640625 1.76765625 -2.38640625 1.43765625 -3.06640625 1.09765625 C-2.06640625 0.09765625 -2.06640625 0.09765625 0 0 Z " fill="#1D115B" transform="translate(371.06640625,365.90234375)"/>
<path d="M0 0 C1.98 0.66 3.96 1.32 6 2 C5.01 2.495 5.01 2.495 4 3 C3.67 3.99 3.34 4.98 3 6 C3 5.01 3 4.02 3 3 C2.01 3 1.02 3 0 3 C0.66 3.33 1.32 3.66 2 4 C1.67 4.99 1.34 5.98 1 7 C-0.32 6.67 -1.64 6.34 -3 6 C-2.01 4.02 -1.02 2.04 0 0 Z " fill="#180D46" transform="translate(82,363)"/>
<path d="M0 0 C1 2 1 2 1.4375 4.5 C1.80148552 7.15791333 1.80148552 7.15791333 4 9 C-0.875 8.125 -0.875 8.125 -2 7 C-2.1875 4.5625 -2.1875 4.5625 -2 2 C-1.34 1.34 -0.68 0.68 0 0 Z " fill="#E9E7EE" transform="translate(74,15)"/>
<path d="M0 0 C2.5 1.3125 2.5 1.3125 5 3 C5 3.99 5 4.98 5 6 C2.03 5.505 2.03 5.505 -1 5 C-0.67 3.35 -0.34 1.7 0 0 Z " fill="#160C3C" transform="translate(121,362)"/>
<path d="M0 0 C3 2 3 2 3.6875 4.125 C3.790625 4.74375 3.89375 5.3625 4 6 C2.35 5.67 0.7 5.34 -1 5 C-0.67 3.35 -0.34 1.7 0 0 Z " fill="#1A0F50" transform="translate(72,364)"/>
<path d="M0 0 C0.99 0.99 1.98 1.98 3 3 C2.01 3 1.02 3 0 3 C-0.33 3.99 -0.66 4.98 -1 6 C-1.33 5.34 -1.66 4.68 -2 4 C-2.66 3.67 -3.32 3.34 -4 3 C-3.34 3 -2.68 3 -2 3 C-2 2.34 -2 1.68 -2 1 C-1.34 0.67 -0.68 0.34 0 0 Z " fill="#1A0F4D" transform="translate(57,364)"/>
<path d="M0 0 C0.99 0.33 1.98 0.66 3 1 C2.67 2.32 2.34 3.64 2 5 C0.35 5 -1.3 5 -3 5 C-2.67 4.01 -2.34 3.02 -2 2 C-1.34 1.67 -0.68 1.34 0 1 C0 0.67 0 0.34 0 0 Z " fill="#180E46" transform="translate(348,363)"/>
<path d="M0 0 C0.33 0.66 0.66 1.32 1 2 C2.32 1.67 3.64 1.34 5 1 C5.66 1.99 6.32 2.98 7 4 C4.39417629 4.93065133 3.35801776 5.14917407 0.75 4.0625 C0.1725 3.711875 -0.405 3.36125 -1 3 C-0.67 2.01 -0.34 1.02 0 0 Z " fill="#1A0F4F" transform="translate(90,364)"/>
<path d="M0 0 C0.99 0.33 1.98 0.66 3 1 C3.66 0.67 4.32 0.34 5 0 C4.34 1.32 3.68 2.64 3 4 C1.68 4 0.36 4 -1 4 C-0.67 2.68 -0.34 1.36 0 0 Z " fill="#1D115B" transform="translate(308,366)"/>
<path d="M0 0 C0.66 0 1.32 0 2 0 C2 0.66 2 1.32 2 2 C2.99 1.67 3.98 1.34 5 1 C5 2.32 5 3.64 5 5 C3.68 4.67 2.36 4.34 1 4 C0.67 2.68 0.34 1.36 0 0 Z " fill="#1B1054" transform="translate(362,365)"/>
<path d="M0 0 C2.86724686 0.57344937 3.8614515 0.8614515 6 3 C4.35 3.33 2.7 3.66 1 4 C0.67 2.68 0.34 1.36 0 0 Z " fill="#1D115B" transform="translate(97,366)"/>
<path d="M0 0 C0.66 0.33 1.32 0.66 2 1 C2 1.66 2 2.32 2 3 C1.34 3 0.68 3 0 3 C0 3.66 0 4.32 0 5 C-0.99 4.67 -1.98 4.34 -3 4 C-2.01 2.68 -1.02 1.36 0 0 Z " fill="#1B1054" transform="translate(339,365)"/>
<path d="M0 0 C0.99 0 1.98 0 3 0 C3 0.66 3 1.32 3 2 C3.66 2.33 4.32 2.66 5 3 C3.35 3.33 1.7 3.66 0 4 C0 2.68 0 1.36 0 0 Z " fill="#1D115B" transform="translate(19,365)"/>
<path d="M0 0 C0.66 0.99 1.32 1.98 2 3 C-0.31 3.33 -2.62 3.66 -5 4 C-3.36587557 2.29159719 -2.13093906 1.06546953 0 0 Z " fill="#150B37" transform="translate(45,363)"/>
<path d="M0 0 C0.99 0.33 1.98 0.66 3 1 C3 1.99 3 2.98 3 4 C1.35 4 -0.3 4 -2 4 C-1.34 2.68 -0.68 1.36 0 0 Z " fill="#1D115B" transform="translate(47,366)"/>
<path d="M0 0 C4.875 1.75 4.875 1.75 6 4 C3.69 3.34 1.38 2.68 -1 2 C-0.67 1.34 -0.34 0.68 0 0 Z " fill="#1C1157" transform="translate(296,365)"/>
<path d="M0 0 C2.97 0.495 2.97 0.495 6 1 C5.34 1.66 4.68 2.32 4 3 C1.875 2.625 1.875 2.625 0 2 C0 1.34 0 0.68 0 0 Z " fill="#1D115B" transform="translate(110,366)"/>
<path d="M0 0 C0.99 0.33 1.98 0.66 3 1 C2.67 1.99 2.34 2.98 2 4 C0.68 3.67 -0.64 3.34 -2 3 C-1.34 3 -0.68 3 0 3 C0 2.01 0 1.02 0 0 Z " fill="#13092C" transform="translate(216,362)"/>
<path d="M0 0 C1.98 0.99 1.98 0.99 4 2 C4 2.66 4 3.32 4 4 C2.68 4 1.36 4 0 4 C0 2.68 0 1.36 0 0 Z " fill="#1D125B" transform="translate(397,366)"/>
<path d="M0 0 C2.31 0 4.62 0 7 0 C7 0.66 7 1.32 7 2 C4.69 1.67 2.38 1.34 0 1 C0 0.67 0 0.34 0 0 Z " fill="#1D115B" transform="translate(116,368)"/>
<path d="M0 0 C1.65 1.32 3.3 2.64 5 4 C3.35 4 1.7 4 0 4 C0 2.68 0 1.36 0 0 Z " fill="#1D115B" transform="translate(165,366)"/>
<path d="M0 0 C-0.33 1.32 -0.66 2.64 -1 4 C-1.99 3.01 -2.98 2.02 -4 1 C-2 0 -2 0 0 0 Z " fill="#1D115B" transform="translate(241,366)"/>
<path d="M0 0 C1.32 0.33 2.64 0.66 4 1 C3.67 1.99 3.34 2.98 3 4 C2.34 4 1.68 4 1 4 C0.67 2.68 0.34 1.36 0 0 Z " fill="#1D125B" transform="translate(190,366)"/>
<path d="M0 0 C2.475 0.495 2.475 0.495 5 1 C4.67 1.66 4.34 2.32 4 3 C2.68 2.67 1.36 2.34 0 2 C0 1.34 0 0.68 0 0 Z " fill="#1D115B" transform="translate(215,367)"/>
<path d="M0 0 C0.66 0.33 1.32 0.66 2 1 C2 1.66 2 2.32 2 3 C0.68 3 -0.64 3 -2 3 C-2 2.34 -2 1.68 -2 1 C-1.34 0.67 -0.68 0.34 0 0 Z " fill="#1D125B" transform="translate(272,367)"/>
<path d="M0 0 C1.98 0.99 1.98 0.99 4 2 C3.67 2.99 3.34 3.98 3 5 C3 4.34 3 3.68 3 3 C2.01 2.67 1.02 2.34 0 2 C0 1.34 0 0.68 0 0 Z " fill="#1B1055" transform="translate(35,365)"/>
<path d="M0 0 C0.99 0 1.98 0 3 0 C3 0.66 3 1.32 3 2 C1.35 2 -0.3 2 -2 2 C-1.34 1.34 -0.68 0.68 0 0 Z " fill="#1D115B" transform="translate(198,368)"/>
<path d="M0 0 C0.99 0.99 1.98 1.98 3 3 C1.68 2.67 0.36 2.34 -1 2 C-0.67 1.34 -0.34 0.68 0 0 Z " fill="#1D115B" transform="translate(182,367)"/>
<path d="M0 0 C0.99 0.99 1.98 1.98 3 3 C1.68 2.67 0.36 2.34 -1 2 C-0.67 1.34 -0.34 0.68 0 0 Z " fill="#1D115B" transform="translate(139,367)"/>
<path d="M0 0 C0.66 0.33 1.32 0.66 2 1 C1.01 2.485 1.01 2.485 0 4 C-0.66 3.67 -1.32 3.34 -2 3 C-1.34 2.01 -0.68 1.02 0 0 Z " fill="#1D125B" transform="translate(255,366)"/>
<path d="M0 0 C0.66 0 1.32 0 2 0 C2.33 0.99 2.66 1.98 3 3 C2.01 3 1.02 3 0 3 C0 2.01 0 1.02 0 0 Z " fill="#1D115B" transform="translate(202,367)"/>
<path d="M0 0 C0.33 0.99 0.66 1.98 1 3 C0.34 3.66 -0.32 4.32 -1 5 C-1 2 -1 2 0 0 Z " fill="#1B1054" transform="translate(187,365)"/>
<path d="M0 0 C0.99 0.33 1.98 0.66 3 1 C3 1.66 3 2.32 3 3 C2.01 3 1.02 3 0 3 C0 2.01 0 1.02 0 0 Z " fill="#1D125B" transform="translate(62,367)"/>
<path d="M0 0 C0.99 0.495 0.99 0.495 2 1 C1.67 1.99 1.34 2.98 1 4 C0.67 2.68 0.34 1.36 0 0 Z " fill="#1D125B" transform="translate(162,366)"/>
<path d="M0 0 C0.33 0.66 0.66 1.32 1 2 C0.34 2.66 -0.32 3.32 -1 4 C-1 1 -1 1 0 0 Z " fill="#1B1053" transform="translate(332,365)"/>
<path d="M0 0 C0.99 0.33 1.98 0.66 3 1 C3 1.66 3 2.32 3 3 C2.01 2.67 1.02 2.34 0 2 C0 1.34 0 0.68 0 0 Z " fill="#1D115B" transform="translate(291,366)"/>
<path d="M0 0 C0.33 0.99 0.66 1.98 1 3 C0.01 3 -0.98 3 -2 3 C-1.34 2.67 -0.68 2.34 0 2 C0 1.34 0 0.68 0 0 Z " fill="#1D115B" transform="translate(108,366)"/>
<path d="M0 0 C0.66 0 1.32 0 2 0 C1.67 0.99 1.34 1.98 1 3 C0.34 2.67 -0.32 2.34 -1 2 C-0.67 1.34 -0.34 0.68 0 0 Z " fill="#1D115B" transform="translate(31,367)"/>
<path d="M0 0 C0.66 0.99 1.32 1.98 2 3 C1.01 3.33 0.02 3.66 -1 4 C-0.67 2.68 -0.34 1.36 0 0 Z " fill="#190F4B" transform="translate(317,364)"/>
<path d="M0 0 C0.66 0.66 1.32 1.32 2 2 C1.01 2.495 1.01 2.495 0 3 C-0.66 2.34 -1.32 1.68 -2 1 C-1.34 0.67 -0.68 0.34 0 0 Z " fill="#140A33" transform="translate(150,364)"/>
<path d="M0 0 C0.66 0.66 1.32 1.32 2 2 C1.34 2.66 0.68 3.32 0 4 C-0.33 3.34 -0.66 2.68 -1 2 C-0.67 1.34 -0.34 0.68 0 0 Z " fill="#140A33" transform="translate(232,363)"/>
<path d="M0 0 C0.99 0.99 1.98 1.98 3 3 C2.01 2.67 1.02 2.34 0 2 C0 1.34 0 0.68 0 0 Z " fill="#1D125B" transform="translate(285,367)"/>
<path d="M0 0 C0.33 1.32 0.66 2.64 1 4 C0.34 3.67 -0.32 3.34 -1 3 C-0.67 2.01 -0.34 1.02 0 0 Z " fill="#1D115B" transform="translate(213,366)"/>
<path d="M0 0 C0.99 0.33 1.98 0.66 3 1 C2.01 1.33 1.02 1.66 0 2 C0 1.34 0 0.68 0 0 Z " fill="#1D125B" transform="translate(40,368)"/>
<path d="M0 0 C0.66 0 1.32 0 2 0 C1.67 1.32 1.34 2.64 1 4 C0.67 2.68 0.34 1.36 0 0 Z " fill="#1D115B" transform="translate(207,366)"/>
<path d="M0 0 C0.99 0.33 1.98 0.66 3 1 C1.68 1.33 0.36 1.66 -1 2 C-0.67 1.34 -0.34 0.68 0 0 Z " fill="#13092C" transform="translate(305,364)"/>
<path d="M0 0 C0 0.99 0 1.98 0 3 C-0.66 2.67 -1.32 2.34 -2 2 C-1.34 1.34 -0.68 0.68 0 0 Z " fill="#170C3E" transform="translate(107,364)"/>
<path d="M0 0 C0 0.99 0 1.98 0 3 C-0.66 2.34 -1.32 1.68 -2 1 C-1.34 0.67 -0.68 0.34 0 0 Z " fill="#150A35" transform="translate(67,364)"/>
<path d="M0 0 C0.99 0.495 0.99 0.495 2 1 C2 1.66 2 2.32 2 3 C1.34 3 0.68 3 0 3 C0 2.01 0 1.02 0 0 Z " fill="#13092C" transform="translate(102,363)"/>
<path d="M0 0 C1.485 0.99 1.485 0.99 3 2 C2.01 2 1.02 2 0 2 C0 1.34 0 0.68 0 0 Z " fill="#1D125B" transform="translate(317,368)"/>
<path d="M0 0 C0 3 0 3 0 3 Z " fill="#1D125B" transform="translate(136,367)"/>
<path d="M0 0 C0.99 0.495 0.99 0.495 2 1 C1.67 1.66 1.34 2.32 1 3 C0.67 2.01 0.34 1.02 0 0 Z " fill="#1D125B" transform="translate(87,367)"/>
<path d="M0 0 C0.99 0.495 0.99 0.495 2 1 C1.34 1.66 0.68 2.32 0 3 C0 2.01 0 1.02 0 0 Z " fill="#1D125B" transform="translate(260,367)"/>
<path d="M0 0 C0.66 0.33 1.32 0.66 2 1 C1.01 1 0.02 1 -1 1 C-0.67 0.67 -0.34 0.34 0 0 Z " fill="#1D115B" transform="translate(224,367)"/>
<path d="M0 0 C0.66 0.33 1.32 0.66 2 1 C1.01 1 0.02 1 -1 1 C-0.67 0.67 -0.34 0.34 0 0 Z " fill="#1D115B" transform="translate(129,367)"/>
<path d="M0 0 C0.66 0.66 1.32 1.32 2 2 C1.01 1.67 0.02 1.34 -1 1 C-0.67 0.67 -0.34 0.34 0 0 Z " fill="#1A0F4F" transform="translate(359,365)"/>
<path d="M0 0 C0.99 0 1.98 0 3 0 C2.67 0.66 2.34 1.32 2 2 C1.34 1.34 0.68 0.68 0 0 Z " fill="#150B37" transform="translate(243,365)"/>
<path d="M0 0 C0.66 0.66 1.32 1.32 2 2 C1.01 1.67 0.02 1.34 -1 1 C-0.67 0.67 -0.34 0.34 0 0 Z " fill="#13092C" transform="translate(201,364)"/>
<path d="M0 0 C0 3 0 3 0 3 Z " fill="#13092C" transform="translate(153,363)"/>
<path d="M0 0 C0.33 0.66 0.66 1.32 1 2 C0.01 1.67 -0.98 1.34 -2 1 C-1.34 0.67 -0.68 0.34 0 0 Z " fill="#13092C" transform="translate(62,364)"/>
<path d="M0 0 C0 3 0 3 0 3 Z " fill="#13092C" transform="translate(142,362)"/>
<path d="M0 0 C3 1 3 1 3 1 Z " fill="#1D125B" transform="translate(124,369)"/>
<path d="M0 0 C3 1 3 1 3 1 Z " fill="#1D125B" transform="translate(353,368)"/>
<path d="M0 0 C0.99 0.495 0.99 0.495 2 1 C1.01 1.495 1.01 1.495 0 2 C0 1.34 0 0.68 0 0 Z " fill="#1D125B" transform="translate(333,367)"/>
<path d="M0 0 C0.33 0.66 0.66 1.32 1 2 C0.34 1.67 -0.32 1.34 -1 1 C-0.67 0.67 -0.34 0.34 0 0 Z " fill="#1D125B" transform="translate(326,368)"/>
<path d="M0 0 C0.66 0 1.32 0 2 0 C1.67 0.66 1.34 1.32 1 2 C0.67 1.34 0.34 0.68 0 0 Z " fill="#1D115B" transform="translate(313,368)"/>
<path d="M0 0 C0.66 0 1.32 0 2 0 C1.67 0.66 1.34 1.32 1 2 C0.67 1.34 0.34 0.68 0 0 Z " fill="#1D125B" transform="translate(265,368)"/>
<path d="M0 0 C0.33 0.66 0.66 1.32 1 2 C0.34 1.67 -0.32 1.34 -1 1 C-0.67 0.67 -0.34 0.34 0 0 Z " fill="#1D115B" transform="translate(229,368)"/>
<path d="M0 0 C0.33 0.66 0.66 1.32 1 2 C0.34 1.67 -0.32 1.34 -1 1 C-0.67 0.67 -0.34 0.34 0 0 Z " fill="#1D125B" transform="translate(58,368)"/>
<path d="M0 0 C0.33 0.66 0.66 1.32 1 2 C0.34 1.67 -0.32 1.34 -1 1 C-0.67 0.67 -0.34 0.34 0 0 Z " fill="#1D115B" transform="translate(160,367)"/>
<path d="M0 0 C0.33 0.66 0.66 1.32 1 2 C0.34 1.67 -0.32 1.34 -1 1 C-0.67 0.67 -0.34 0.34 0 0 Z " fill="#1D115B" transform="translate(228,366)"/>
<path d="M0 0 C0.33 0.66 0.66 1.32 1 2 C0.34 1.67 -0.32 1.34 -1 1 C-0.67 0.67 -0.34 0.34 0 0 Z " fill="#190F4C" transform="translate(185,365)"/>
<path d="M0 0 C3 1 3 1 3 1 Z " fill="#13092C" transform="translate(292,365)"/>
<path d="M0 0 C3 1 3 1 3 1 Z " fill="#13092C" transform="translate(116,365)"/>
<path d="M0 0 C0.33 0.66 0.66 1.32 1 2 C0.34 1.67 -0.32 1.34 -1 1 C-0.67 0.67 -0.34 0.34 0 0 Z " fill="#13092C" transform="translate(289,364)"/>
<path d="M0 0 C0.66 0.66 1.32 1.32 2 2 C1.34 2 0.68 2 0 2 C0 1.34 0 0.68 0 0 Z " fill="#13092C" transform="translate(192,363)"/>
<path d="M0 0 C0.33 0.66 0.66 1.32 1 2 C0.34 1.67 -0.32 1.34 -1 1 C-0.67 0.67 -0.34 0.34 0 0 Z " fill="#13092C" transform="translate(33,363)"/>
<path d="M0 0 C0.99 0.495 0.99 0.495 2 1 C1.01 1.495 1.01 1.495 0 2 C0 1.34 0 0.68 0 0 Z " fill="#13092C" transform="translate(63,362)"/>
<path d="M0 0 C0.99 0.495 0.99 0.495 2 1 C1.01 1.495 1.01 1.495 0 2 C0 1.34 0 0.68 0 0 Z " fill="#13092C" transform="translate(309,361)"/>
<path d="M0 0 C0.99 0.495 0.99 0.495 2 1 C1.01 1.495 1.01 1.495 0 2 C0 1.34 0 0.68 0 0 Z " fill="#13092C" transform="translate(179,361)"/>
<path d="M0 0 C2 1 2 1 2 1 Z " fill="#1D115B" transform="translate(359,369)"/>
<path d="M0 0 C2 1 2 1 2 1 Z " fill="#1D125B" transform="translate(356,369)"/>
<path d="M0 0 C2 1 2 1 2 1 Z " fill="#1D115B" transform="translate(334,369)"/>
<path d="M0 0 C2 1 2 1 2 1 Z " fill="#1D125B" transform="translate(303,369)"/>
<path d="M0 0 C2 1 2 1 2 1 Z " fill="#1D115B" transform="translate(298,369)"/>
<path d="" fill="#1D125B" transform="translate(0,0)"/>
<path d="M0 0 C2 1 2 1 2 1 Z " fill="#1D125B" transform="translate(275,369)"/>
<path d="" fill="#1D125B" transform="translate(0,0)"/>
<path d="M0 0 C2 1 2 1 2 1 Z " fill="#1D125B" transform="translate(263,369)"/>
<path d="M0 0 C2 1 2 1 2 1 Z " fill="#1D125B" transform="translate(177,369)"/>
<path d="M0 0 C2 1 2 1 2 1 Z " fill="#1D125B" transform="translate(343,368)"/>
<path d="M0 0 C2 1 2 1 2 1 Z " fill="#1D115B" transform="translate(289,368)"/>
<path d="M0 0 C2 1 2 1 2 1 Z " fill="#1D125B" transform="translate(231,368)"/>
<path d="M0 0 C2 1 2 1 2 1 Z " fill="#1D115B" transform="translate(144,368)"/>
<path d="" fill="#1D125B" transform="translate(0,0)"/>
<path d="" fill="#1D125B" transform="translate(0,0)"/>
<path d="" fill="#1D125B" transform="translate(0,0)"/>
<path d="M0 0 C2 1 2 1 2 1 Z " fill="#1D115B" transform="translate(281,367)"/>
<path d="M0 0 C2 1 2 1 2 1 Z " fill="#1D125B" transform="translate(246,367)"/>
<path d="" fill="#1D125C" transform="translate(0,0)"/>
<path d="" fill="#180D43" transform="translate(0,0)"/>
<path d="" fill="#180D43" transform="translate(0,0)"/>
<path d="" fill="#180D43" transform="translate(0,0)"/>
<path d="M0 0 C2 1 2 1 2 1 Z " fill="#1D125B" transform="translate(63,366)"/>
<path d="M0 0 C2 1 2 1 2 1 Z " fill="#13092C" transform="translate(379,365)"/>
<path d="M0 0 C2 1 2 1 2 1 Z " fill="#13092C" transform="translate(374,365)"/>
<path d="" fill="#13092C" transform="translate(0,0)"/>
<path d="" fill="#13092C" transform="translate(0,0)"/>
<path d="" fill="#13092C" transform="translate(0,0)"/>
<path d="" fill="#13092C" transform="translate(0,0)"/>
<path d="" fill="#13092C" transform="translate(0,0)"/>
<path d="M0 0 C2 1 2 1 2 1 Z " fill="#13092C" transform="translate(253,365)"/>
<path d="" fill="#13092C" transform="translate(0,0)"/>
<path d="M0 0 C2 1 2 1 2 1 Z " fill="#1D125B" transform="translate(399,363)"/>
<path d="" fill="#13092C" transform="translate(0,0)"/>
<path d="" fill="#13092C" transform="translate(0,0)"/>
<path d="" fill="#1D125B" transform="translate(0,0)"/>
<path d="" fill="#1D125B" transform="translate(0,0)"/>
<path d="" fill="#1D125B" transform="translate(0,0)"/>
<path d="" fill="#1D115B" transform="translate(0,0)"/>
<path d="" fill="#1D125B" transform="translate(0,0)"/>
<path d="" fill="#1D125B" transform="translate(0,0)"/>
<path d="" fill="#1D125B" transform="translate(0,0)"/>
<path d="" fill="#1D125B" transform="translate(0,0)"/>
<path d="" fill="#1D125B" transform="translate(0,0)"/>
<path d="" fill="#1D125B" transform="translate(0,0)"/>
<path d="" fill="#1D125C" transform="translate(0,0)"/>
<path d="" fill="#1D125B" transform="translate(0,0)"/>
<path d="" fill="#1D125B" transform="translate(0,0)"/>
<path d="" fill="#1D125B" transform="translate(0,0)"/>
<path d="" fill="#1D125B" transform="translate(0,0)"/>
<path d="" fill="#1D115B" transform="translate(0,0)"/>
<path d="" fill="#1D125B" transform="translate(0,0)"/>
<path d="" fill="#1D125B" transform="translate(0,0)"/>
<path d="" fill="#1D125B" transform="translate(0,0)"/>
<path d="" fill="#1D125B" transform="translate(0,0)"/>
<path d="" fill="#1D125B" transform="translate(0,0)"/>
<path d="" fill="#1D125C" transform="translate(0,0)"/>
<path d="" fill="#1D115B" transform="translate(0,0)"/>
<path d="" fill="#1D115B" transform="translate(0,0)"/>
<path d="" fill="#1D125B" transform="translate(0,0)"/>
<path d="" fill="#1D125C" transform="translate(0,0)"/>
<path d="" fill="#1D125B" transform="translate(0,0)"/>
<path d="" fill="#1D125B" transform="translate(0,0)"/>
<path d="" fill="#1D125B" transform="translate(0,0)"/>
<path d="" fill="#1D125C" transform="translate(0,0)"/>
<path d="" fill="#1D125B" transform="translate(0,0)"/>
<path d="" fill="#1D125B" transform="translate(0,0)"/>
<path d="" fill="#1D125B" transform="translate(0,0)"/>
<path d="" fill="#1D115C" transform="translate(0,0)"/>
<path d="" fill="#1D125B" transform="translate(0,0)"/>
<path d="" fill="#1D115B" transform="translate(0,0)"/>
<path d="" fill="#1D125B" transform="translate(0,0)"/>
<path d="" fill="#1D125C" transform="translate(0,0)"/>
<path d="" fill="#1D125C" transform="translate(0,0)"/>
<path d="" fill="#1D125B" transform="translate(0,0)"/>
<path d="" fill="#1D125B" transform="translate(0,0)"/>
<path d="" fill="#1D125B" transform="translate(0,0)"/>
<path d="" fill="#1D125B" transform="translate(0,0)"/>
<path d="" fill="#1D125B" transform="translate(0,0)"/>
<path d="" fill="#1D125B" transform="translate(0,0)"/>
<path d="" fill="#1D125C" transform="translate(0,0)"/>
<path d="" fill="#1D125C" transform="translate(0,0)"/>
<path d="" fill="#1D125B" transform="translate(0,0)"/>
<path d="" fill="#1D125B" transform="translate(0,0)"/>
<path d="" fill="#1D125B" transform="translate(0,0)"/>
<path d="" fill="#1D125B" transform="translate(0,0)"/>
<path d="" fill="#1D125B" transform="translate(0,0)"/>
<path d="" fill="#1D125B" transform="translate(0,0)"/>
<path d="" fill="#1D125C" transform="translate(0,0)"/>
<path d="" fill="#1D125C" transform="translate(0,0)"/>
<path d="" fill="#1D125B" transform="translate(0,0)"/>
<path d="" fill="#1D125C" transform="translate(0,0)"/>
<path d="" fill="#1D125B" transform="translate(0,0)"/>
<path d="" fill="#1D125C" transform="translate(0,0)"/>
<path d="" fill="#1D125C" transform="translate(0,0)"/>
<path d="" fill="#1D125B" transform="translate(0,0)"/>
<path d="" fill="#1D125B" transform="translate(0,0)"/>
<path d="" fill="#1D125B" transform="translate(0,0)"/>
<path d="" fill="#1D125C" transform="translate(0,0)"/>
<path d="" fill="#1D125B" transform="translate(0,0)"/>
<path d="" fill="#1D125C" transform="translate(0,0)"/>
<path d="" fill="#1D125B" transform="translate(0,0)"/>
<path d="" fill="#1D125C" transform="translate(0,0)"/>
<path d="" fill="#1D125C" transform="translate(0,0)"/>
<path d="" fill="#1D125C" transform="translate(0,0)"/>
<path d="" fill="#1D125B" transform="translate(0,0)"/>
<path d="" fill="#1D125B" transform="translate(0,0)"/>
<path d="" fill="#1D125B" transform="translate(0,0)"/>
<path d="" fill="#1D125B" transform="translate(0,0)"/>
<path d="" fill="#1D125C" transform="translate(0,0)"/>
<path d="" fill="#13092C" transform="translate(0,0)"/>
<path d="" fill="#13092C" transform="translate(0,0)"/>
<path d="" fill="#13092C" transform="translate(0,0)"/>
<path d="" fill="#13092C" transform="translate(0,0)"/>
<path d="" fill="#13092C" transform="translate(0,0)"/>
<path d="" fill="#13092C" transform="translate(0,0)"/>
<path d="" fill="#13092C" transform="translate(0,0)"/>
<path d="" fill="#13092C" transform="translate(0,0)"/>
<path d="" fill="#13092C" transform="translate(0,0)"/>
<path d="" fill="#13092C" transform="translate(0,0)"/>
<path d="" fill="#13092C" transform="translate(0,0)"/>
<path d="" fill="#13092C" transform="translate(0,0)"/>
<path d="" fill="#13092C" transform="translate(0,0)"/>
<path d="" fill="#13092C" transform="translate(0,0)"/>
<path d="" fill="#13092C" transform="translate(0,0)"/>
<path d="" fill="#13092C" transform="translate(0,0)"/>
<path d="" fill="#13092C" transform="translate(0,0)"/>
<path d="" fill="#13092C" transform="translate(0,0)"/>
<path d="" fill="#13092C" transform="translate(0,0)"/>
<path d="" fill="#13092C" transform="translate(0,0)"/>
<path d="" fill="#13092C" transform="translate(0,0)"/>
<path d="" fill="#13092C" transform="translate(0,0)"/>
<path d="" fill="#13092C" transform="translate(0,0)"/>
<path d="" fill="#13092C" transform="translate(0,0)"/>
<path d="" fill="#13092C" transform="translate(0,0)"/>
<path d="" fill="#13092C" transform="translate(0,0)"/>
<path d="" fill="#13092C" transform="translate(0,0)"/>
<path d="" fill="#13092C" transform="translate(0,0)"/>
<path d="" fill="#13092C" transform="translate(0,0)"/>
<path d="" fill="#13092C" transform="translate(0,0)"/>
<path d="" fill="#13092C" transform="translate(0,0)"/>
<path d="" fill="#1D125B" transform="translate(0,0)"/>
<path d="" fill="#13092C" transform="translate(0,0)"/>
<path d="" fill="#13092C" transform="translate(0,0)"/>
<path d="" fill="#13092C" transform="translate(0,0)"/>
<path d="" fill="#13092C" transform="translate(0,0)"/>
<path d="" fill="#13092C" transform="translate(0,0)"/>
<path d="" fill="#13092C" transform="translate(0,0)"/>
<path d="" fill="#13092C" transform="translate(0,0)"/>
<path d="" fill="#13092C" transform="translate(0,0)"/>
<path d="" fill="#13092C" transform="translate(0,0)"/>
<path d="" fill="#13092C" transform="translate(0,0)"/>
<path d="" fill="#13092C" transform="translate(0,0)"/>
<path d="" fill="#13092C" transform="translate(0,0)"/>
<path d="" fill="#13092C" transform="translate(0,0)"/>
<path d="" fill="#13092C" transform="translate(0,0)"/>
<path d="" fill="#13092C" transform="translate(0,0)"/>
<path d="" fill="#13092C" transform="translate(0,0)"/>
<path d="" fill="#1D125C" transform="translate(0,0)"/>
<path d="" fill="#13092C" transform="translate(0,0)"/>
<path d="" fill="#13092C" transform="translate(0,0)"/>
<path d="" fill="#13092C" transform="translate(0,0)"/>
<path d="" fill="#13092C" transform="translate(0,0)"/>
<path d="" fill="#13092C" transform="translate(0,0)"/>
<path d="" fill="#13092C" transform="translate(0,0)"/>
<path d="" fill="#13092C" transform="translate(0,0)"/>
<path d="" fill="#13092C" transform="translate(0,0)"/>
<path d="" fill="#13092C" transform="translate(0,0)"/>
<path d="" fill="#13092C" transform="translate(0,0)"/>
<path d="" fill="#13092C" transform="translate(0,0)"/>
</svg>
